/* XPM */
static char *_60bf58d6bc94eb98a9e72e4fcc2b4d99wYakNCsnXUO6JrQ[] = {
/* columns rows colors chars-per-pixel */
"64 64 254 2 ",
"   c #3C1500",
".  c #3A2624",
"X  c #441702",
"o  c #431900",
"O  c #4B1C00",
"+  c #571C02",
"@  c #4D2104",
"#  c #542100",
"$  c #5B2702",
"%  c #562B15",
"&  c #622601",
"*  c #652B02",
"=  c #6A2C01",
"-  c #732A05",
";  c #783502",
":  c #785B02",
">  c #10305C",
",  c #213753",
"<  c #061E6A",
"1  c #09256C",
"2  c #082869",
"3  c #0B2B6D",
"4  c #112E69",
"5  c #0B366A",
"6  c #0C336D",
"7  c #163768",
"8  c #133B6D",
"9  c #072874",
"0  c #0A2C74",
"q  c #0A2D7B",
"w  c #063375",
"e  c #0C3374",
"r  c #0E3C73",
"t  c #0D337B",
"y  c #0E3A7B",
"u  c #113472",
"i  c #123C74",
"p  c #1A3977",
"a  c #11357B",
"s  c #123B7C",
"d  c #28396A",
"f  c #1E495D",
"g  c #284A5A",
"h  c #395C5E",
"j  c #3D655C",
"k  c #0E406C",
"l  c #1A446A",
"z  c #0D4476",
"x  c #134375",
"c  c #154A75",
"v  c #14447B",
"b  c #1A4778",
"n  c #154B7B",
"m  c #1A4D7C",
"M  c #1B5476",
"N  c #185877",
"B  c #16537C",
"V  c #1B547C",
"C  c #1C5B7C",
"Z  c #274968",
"A  c #3B4868",
"S  c #2B5467",
"D  c #355968",
"F  c #254777",
"G  c #275777",
"H  c #365B75",
"J  c #1D637C",
"K  c #1F6A7A",
"L  c #3C6269",
"P  c #236677",
"I  c #21637C",
"U  c #396375",
"Y  c #22727F",
"T  c #524855",
"R  c #64584E",
"E  c #43675C",
"W  c #71684F",
"Q  c #4D596C",
"!  c #635C66",
"~  c #47696A",
"^  c #50716E",
"/  c #476A73",
"(  c #4B7276",
")  c #577875",
"_  c #6D676D",
"`  c #BA1617",
"'  c #8C2C0C",
"]  c #A72E09",
"[  c #BE2D01",
"{  c #B73509",
"}  c #A32419",
"|  c #B53314",
" . c #BB3328",
".. c #C6370A",
"X. c #C73B14",
"o. c #C12D2A",
"O. c #C33939",
"+. c #8C4802",
"@. c #985901",
"#. c #AD5505",
"$. c #946E06",
"%. c #A86705",
"&. c #BA6609",
"*. c #B47410",
"=. c #9E5927",
"-. c #916536",
";. c #B77330",
":. c #D0490F",
">. c #E4520D",
",. c #CA6B07",
"<. c #D36D01",
"1. c #D2690C",
"2. c #D67201",
"3. c #D8770A",
"4. c #CA6F15",
"5. c #D87914",
"6. c #DB7E1C",
"7. c #EB6510",
"8. c #C84D2E",
"9. c #CE7927",
"0. c #927151",
"q. c #AA7849",
"w. c #9C6A63",
"e. c #C54747",
"r. c #CD5850",
"t. c #C6716C",
"y. c #759507",
"u. c #6E9B23",
"i. c #64875C",
"p. c #90940D",
"a. c #A98A0B",
"s. c #83AA07",
"d. c #8BAE07",
"f. c #96B907",
"g. c #A3AA0E",
"h. c #949729",
"j. c #B8AB2B",
"k. c #DA850B",
"l. c #D7940B",
"z. c #DE8116",
"x. c #E1850C",
"c. c #E28619",
"v. c #E7931A",
"b. c #F0B018",
"n. c #DB8729",
"m. c #CF8831",
"M. c #E28621",
"N. c #E38925",
"B. c #E58D2B",
"V. c #E6912E",
"C. c #E18E31",
"Z. c #E59536",
"A. c #E89533",
"S. c #E99837",
"D. c #EA9C3B",
"F. c #CEA939",
"G. c #EEAF25",
"H. c #ECA03E",
"J. c #9CC105",
"K. c #FDCC2F",
"L. c #FBCB34",
"P. c #B38B5C",
"I. c #CE944C",
"U. c #E39C43",
"Y. c #EDA443",
"T. c #EBA84A",
"R. c #F0A847",
"E. c #F1AC4C",
"W. c #F2AF50",
"Q. c #F4B454",
"!. c #F7BB5B",
"~. c #F8BE5F",
"^. c #CD9F65",
"/. c #CCA774",
"(. c #F8BF60",
"). c #FBD24C",
"_. c #FAC264",
"`. c #FCC669",
"'. c #FECB6D",
"]. c #FEE270",
"[. c #0D3383",
"{. c #0E3B85",
"}. c #0D348A",
"|. c #123B83",
" X c #153984",
".X c #123C8B",
"XX c #10388D",
"oX c #0F4089",
"OX c #154484",
"+X c #194585",
"@X c #154B84",
"#X c #1A4C84",
"$X c #15448C",
"%X c #1A458B",
"&X c #164A8A",
"*X c #1A4C8C",
"=X c #1B5483",
"-X c #1C5C82",
";X c #185985",
":X c #1C538C",
">X c #164593",
",X c #194693",
"<X c #1B4B94",
"1X c #174898",
"2X c #1B4C9B",
"3X c #1D5293",
"4X c #1F5997",
"5X c #1E529B",
"6X c #214B88",
"7X c #235987",
"8X c #204D98",
"9X c #225494",
"0X c #22549C",
"qX c #275B98",
"wX c #235B9C",
"eX c #375791",
"rX c #1D6382",
"tX c #1F6585",
"yX c #1F6190",
"uX c #216684",
"iX c #2E6492",
"pX c #164AA2",
"aX c #1C4EA2",
"sX c #1E52A3",
"dX c #1E53AB",
"fX c #2254A3",
"gX c #255AA4",
"hX c #295DA3",
"jX c #2356AA",
"kX c #2957A8",
"lX c #255BAB",
"zX c #295EAC",
"xX c #305EA1",
"cX c #265DB2",
"vX c #295EB1",
"bX c #2963A9",
"nX c #2B63AC",
"mX c #3766A5",
"MX c #2B63B3",
"NX c #2E68B4",
"BX c #2B67BA",
"VX c #3269B8",
"CX c #4E628F",
"ZX c #4C698E",
"AX c #306DC1",
"SX c #6D8880",
"DX c #CA9086",
"FX c #CBAF94",
"GX c #D0B6A9",
"HX c #CFC4AD",
"JX c #D5CAB8",
"KX c #E1D9CC",
"LX c #E3DED1",
"PX c #E8E3D7",
/* pixels */
"9X:Xm #X+XgX5XB w s >X<Xy v {.oX$X1X<XOXi 0 %X0XnX-XC e t s 1X}.w m x n m +X+X*X9Xy 5 V $X{.,X5X0X0 V M @X$XfXgXe l h E E E h S ",
"H G B :X2XzX5Xc r +X1X5Xt c v *X2X2X,Xy c e *XgXMX;XN w t |.1X}.w B v n V %X$X*X0XOX3 V &X{.1XfXfXw N N OX$XfXzXe 7 D E E j D D ",
"S k ;X5X5XzX2Xz x %X2XjX|.c v &X1X2X$Xw N y <XjXMX=XN 0 0  X1X}.e v OXn N OX*X<XwX+X2 N @X$X2XjXfXw N C s .X2XlX|.7 h h h ~ 7 m ",
"|.V -X5XsXfX,Xx v %XsXjX|.c OX3X2X2X$Xw N v 0XlXnX@Xn 6 3 q .Xq 5 N @XOXN m *X<XwX+X5 V #X$XsXgX5Xw N J =X5XfXzXOXf j D Z l M m ",
"gXV J sXsXsX<Xr v *XlXlX Xc #XwX2XaX>Xw B v fXlXlXOXc 6 t .X.X[.5 C :X$XN m +X2XwX<X5 C *X>XfXlX2Xt y w e t t $Xs f L S 7 J I -X",
"gX=XJ 3XbXjX,X8 m <XlXvX[.c n wXaXsX>Xw B v fXzXsX#Xv OX1XzXlX>X6 m wX%XC m +X2XgX<X8 C #X>XsXzX2Xq n =X%X1X8X<Xe Z Z 2 0 V C y ",
"gXm J :XbXjX<X6 V <XnXzXq c v 9X2XsX>Xw B v fXvX2X8 l +X>XsXsX.X8 U ZXH C m +X2XwX,Xk C +X>XsXnX2X0 V rX.X.XsXnX3 7 i [.9 c C *X",
"fXv K &XbXjX1X3 V +XMXnX9 x n <X2XjX$Xw B OXsXMX.X6 H H *X2X9XH ) ) ) H C V +X2XwX.Xc N OX>XsXMX5X0 m @X}.[..XgX2 V 3X1Xs K C *X",
"qXOXJ @XbXlX>X1 V OXMXbX9 x V *X2XjX.Xr B %XsXMXXX4 f D L L ^ ^ ~ D G +XC m +X2XhXa N C OX>XaXMX5X9 n *X1X1XkX0X6 rX5X<Xe J =X$X",
"/ b rX@XbXlX>X1 =X$XNXnXt x M =XfXjX.Xn V $XaXMX}.4 D h ~ ~ L Z f S iX6XC n +X2XfXe C V |.>XaXvX5X9 x &X1XaXMX<Xi rX5X<X0 C @X$X",
"~ H rX@XlXlX<X9 v $X0XgX|.x J ;XgXgX[.V B $XaXNX}.7 D D F s F S G =Xi b J n +X0XfXa C M t >X2XzXfX1 x &X1XaXvX,Xx 4XfX2X0 C @X$X",
"6XG rX&XhXMX1X9 r v *X<Xs x N :XzXjXt V B $XaXMX}.4 l s $XaX.X7 P rX:X$X-Xn +XfXsX|.C r y $X2XjXsX1 x &X1XjXlX%Xx 4XjX2X3 C #X%X",
"gXv tX&XlXNX1X9 B tX4XNX$Xx C :XbXsXt C C *X2XvX}.r m |.>XsXjX.XC V +X%X-Xm OXgXjX|.C n +X*X2XfX2X1 x &X1XjXjX$Xn wXjX0X0 C #X$X",
"jX@X;X&XsXBX1X2 V =X2XNX.Xn N :XnXfX0 -XV &X1XcX[.6 m $X1XsXvX>Xi 0 9 t C m %XnXlX[.x 6 1 9 [. X.X1 v &X1XjXjX$Xn 3XgX2X0 C =X&X",
"{.@X;X&X2XNX>X6 C B <XMX.Xn V 9XnXsX0 C v OX1XvX}.3 m 6X9XeXZXQ Q A F p M B &XMXgX[.e m s .X.X$X.X< v &X1XaXlX Xn *XgX2X0 C m +X",
"<X:XrX4XsXMX$Xe C C 5XnX.XV J qXNX2Xe C *X*X2XmXA R q.I.U.T.T.E.E.T.T.I.P.0._ ZXxXe x =X*X1X2XgXhX2 x %X1XsXvX|.n :X<X.X3 -Xn &X",
"hX*X*X,X0XgX,Xr J C 5XlX.XM J 9XwX,Xu V qXCX0.P.U.Y.E.Q.!.~._._._._.!.Q.W.T.U.I.q.R Z #X$X2X0XjX1Xs n $X1XjXlXOXc =X*X.Xe -Xc #X",
"hXy 8 n &X1X1Xz J -X5XlX Xi v t 0 0 u G 0.m.Z.Y.E.Q.!._.`.'.'.'.'.'.`._.~.Q.E.Y.D.C.m.! 6XfXjXMX>Xs n &X2XjXlXOXc &XfX$Xt J x #X",
"gXs V =X3XbX1Xr ;X:X5XlXt u x |.%X+XT ;.C.S.Y.E.Q.!.(._.'.'.'.'.'.'.'.`.(.!.Q.E.Y.D.Z.n.0.CXcXNX>X0 m &X2XjXlX Xv &X5X<Xs J x @X",
"gXs N n %XlX1X6 :X2XjXlX0 x V OX<X_ 9.B.S.Y.E.E.Q.!.(._.'.'.'.'.'.'.'._.~.!.Q.E.E.Y.S.V.n.;.mXNX.X1 @X&X1XsXvX{.c :X5X2Xv K V V ",
"zXs C @X*XnXfX6 #X2XjXlX0 8 n *X! 6.N.A.D.Y.R.E.Q.Q.~._.`.'.'.'.'.'._._.!.Q.Q.E.Y.Y.S.A.B.n.;.CX X1 m %X1XsXlX{.m :X5X1Xs c r 6 ",
"MXOX=X:X3XnXnXq B :XvXMX9 6 B H ;.n.B.A.S.D.Y.E.E.Q.!.~._._.`.`._._.(.~.Q.Q.E.E.Y.D.S.A.B.M.5.-.p 6 m $X2XjXlX{.n :X5X2X@XN n +X",
"MX&X@X:X3XNXlXq v &XMXMX1 6 N -.5.n.B.V.S.D.Y.Y.E.W.Q.Q.!.~.~.~.~.!.!.Q.Q.E.E.Y.Y.S.A.V.B.c.3.,.T c B &X2XlXlX|.v :XgXsXn J +X#X",
"BX$X@X:X5XnXsX9 l F jXlX0 l ~ ,.3.c.N.V.A.S.D.Y.Y.E.E.Q.Q.Q.Q.Q.Q.Q.Q.E.E.E.Y.Y.D.S.V.B.M.z.3.<.-.M m &X2XjXlX Xi :XlXsXv G H ( ",
".X[.@X<XjXVXpX9 l U G *X7X/ W <.2.5.c.B.V.A.S.D.Y.Y.R.E.E.E.E.E.E.E.E.E.Y.Y.D.D.A.A.B.N.z.3.2.<.&.G n $X1XdXMX[.8 :XzXfXs D D S ",
"fX>XV :X2XBXpX9 l g j ~ ^ ~ -.<.2.3.z.M.B.V.A.S.D.D.Y.Y.Y.R.E.E.R.Y.Y.Y.H.D.S.A.A.B.N.c.3.3.2.<.,.H n $X>XsXMX[.8 =XhX2Xi Z s $X",
"AXsX-X;X*XMXaX9 Z h ~ D D S R <.<.2.3.6.c.N.V.V.A.S.S.D.D.D.H.H.H.D.D.S.S.A.A.V.B.M.z.3.3.2.2.<.&.l i y >X1X0Xq i z >X$X0 e +X>X",
"BXsXuXC 3XNXsXq Z S l |.u l P -.,.<.2.3.5.c.N.B.B.V.A.A.A.S.S.S.S.S.S.A.V.V.B.N.c.5.3.2.2.2.<.&.T m s t t [. X9 x OX*X|.e i $X>X",
"vX2XuX;X5XNXsX9 7 i 2XjX0 x rX6XP.m.4.<.<.3.5.6.c.M.N.B.B.B.V.V.V.B.B.B.M.c.6.5.3.2.<.<.1.9.I.ZXu 7XOX5XhXfXjX|.V tX5X5Xe i $X>X",
"lX$XuX=X<XVXnX< c *XNXMX0 c J Q FXJXHX/.I.9.4.1.3.3.5.6.6.6.6.6.6.6.6.5.3.3.<.<.,.4.m.^.FXHXJXw.d =X#X5XgXfXlX*XuXyXjXsXw r +X<X",
"lXOXtX=XwXNXlX< n qXNXMXq G i.8.O.r.DXFXGXHXJXFXFX/./.^.^.^.^.^.^.^.^.^././.FXFXHXJXJXGXFXt.e.8.=.m ,X0XjXfXjXOX=XwXMXaXi r +X,X",
"zXv rX=X0XMX2Xe V qXNXMXt W l.x.3.3.8.e.O.e.t.DXFXGXJXJXKXKXKXLXLXPXPXPXPXKXJXGXDXt.e.O.O.X.' - % n +X2XsXvXsXs :XgXMX>Xx n =X3X",
"MX@XrX-XhXMX2X-XC hXMXlXq l . = ; @.=.r.| #.|  .` ` |  . .e.e.e.e.O.O.O. .` ` ` o.1.3...o.} * $ X b v %XfXMX2Xr #XgXBX}.n n =X:X",
"zX=XuXrXbXjX>XuXuXyXgX2X0 N g @ $ ; '  .' ; ; - ' +.&.3.3.1.X.` ` ..5.v.c.1.X.8.6.b.b.,.` ' * $ X b n +XfXMX2Xe =XjXvXq B B -X=X",
"fXOXx e |. Xt #Xz t }.[.2 J S @ $ - ; ; ; ; ' = $ $ # $ +.%.k.x.G.L.L.K.K.K.K.K.K.K.l.= } - ; * . c C *XjXMXaXe =XfXjX9 C C C =X",
".Xx c :XhX$Xt 8 B 3X0XgX0 N m . @ * = * * * ; = & & = $ = # $ ; @.*.v.G.L.).).).).G.; $ * * $ @ , m =X*XfXMX1Xe =XfXaX0 J J N #X",
"gX:XN &X>X1X>XI =X>XsXfX3 C @XA O o @ # $ $ * * & $ $ = * & = & # = = @.l.G.).].).%.# * # @ o % d m @X,XjXMX1Xr =X0X>X0 N c C v ",
"nX:XtX&XaXdXXX-X&X5XlX1X3 P u.%.] + X o o O # # # # # & $ = $ # # * = O @ @.k.).F.$ o o o O - :.p.j @X1XjXvX>Xr -X5X2X0 m x r s ",
"nXOXJ &XaXpX[.=X@X3XfX2X3 G i.a.:.X.] ' + X   o o o O O O O O O O O # O o   $ @.+.o X & ' | >.7.p.j &X>XsXlX1Xx -X5XfX0 e e 2 2 ",
"nXs J &XaXdXq V m :X0XgX3 V i.f.&.:.>.7.7.:.] - + X X                     o O & ' ] :.:.X.:.>.g.s.G &X>X2XlX5Xr ;X5XsX9 z B :X*X",
"gXs J @XfXsXq n @X:X5XgX2 C E h.p.p.*.3.7.>.>.:.:.X...{ ] ] ] ] ] ] ] ] { { ..........:.&.a.d.h.h.G &X>X2XjXgXz J 4XjX0 B C @Xy ",
"0Xa C @XjXaXq c @X3X5X<X2 V G I.j.f.f.f.g.a.%.#.:.............[ [ [ [ [ [ [ [ { #.@.$.p.f.f.f.T.0.C =X>X2XsXbXz N 3XgXe V -X=X+X",
"5Xa rX&XlX2X9 c #X3XfX1X3 V G I.T.j.g.p.y.d.s.y.s.p.a.$.%.%.@.@.@.@.@.$.$.p.p.y.s.d.s.y.p.h.F.W.0.B v |.$X,X3Xz c x +X3 C -X@X+X",
"2Xs rX<XnX1X9 c #X*XjX0X3 V G I.T.T.U.Z.m.p.f.f.f.d.y.y.y.f.d.s.s.f.d.y.y.y.s.f.J.f.a.m.D.T.W.Y.W u 3 1 9 0 s r v $X|.0 C rX@X$X",
"<Xs J 5XNX>X0 N =X*XgXwX5 N #X0.U.T.R.Y.S.n.$.$.$.@.#.#.$.y.s.d.f.s.: @.#.#.@.$.$.*.C.Y.E.E.T.I.Q V m #X*X+Xs x #XgXnX{.M J OX$X",
"1Xv J wXNX.X6 J =X:XhX3X2 N <XeX0.C.D.D.S.V.6.5.5.6.z.5.3.&.%.$.%.%.,.3.z.z.6.5.6.n.S.D.H.D.I._ s m *X>X<X0Xt i *XfXbX|.M C OX<X",
"<Xn uXwXNX[.u I 7XyXnX1X3 V *XfXxXT ;.n.B.B.N.M.M.c.c.c.x.x.3.3.3.k.x.c.c.c.M.M.N.B.C.C.n.q.CX0X|.m 3XaX0XlXt x :X0XgXa m N *XfX",
"2Xm B yXnX}.v C :X9X9X>X0 B *XgXlXt Z R q.9.9.6.6.6.z.z.z.x.x.x.k.k.z.z.z.z.z.6.6.9.;.0.Q kX5XgX|.V 3XaXfXzXq x *X0X0Xt M P 7XzX",
"0Xm -XwXjX2Xt 5 r e a 0 0 n <XgXlXt x c 9XeXZX_ 0.-.;.4.4.5.3.3.3.3.4.4.;.;.0.0.T Q H M ,XsXaXfXs B <XsXfXzXq x :X0X0X9 G L ( ZX",
"s m =XbXVXaXt C :X:X9X>Xy V 2XjXlX[.x c 5XcXBXAX2XB M F F eXeXA ~ A F d G 9XlXzX|.m C c @X%X2X5Xt m <XsXjXzX0 n =X0X0X0 G / ~ ^ ",
"u x x &X3X.Xs B $X1XnX2Xt C :XhXlX[.x #XfXvXBXAX1XB c v %X2X2Xs C +X+Xe J ;X5XhX+Xm N x OX$X2X5Xt m 2XfXfXnXt c :X0X0Xu S L ) ^ ",
"*Xx x y s  X6 =X,XfXNX1X0 J -XnXzXq x m wXzXMXAX2XB c +X,XaXfXs C +X+X6 K =X<XgX*Xm N e %X,X5XgXa n *X0XjXMXs x <X0X9Xu S S L / ",
"7XJ rXbXNX<X4 =X<XfXMX>Xe I rXnXnXq n C *XgXMXAX2X=Xn y ,XaXjX|.V +XOX6 K -X2XgX<Xb C x +X<XfXqXp M v 8XlXNX%Xn :X0X9Xu b 7 l F ",
"*XC :XNXmXU > V *XsXjX.Xt rX;XhXnXq n V OXhXVXAX2X-Xc t >XaXlX|.V +Xs 8 K J 4XhX+Xi J x %X<XiXH 7 C v ,XvXBX<Xn *X8X0X0 M i V <X",
"#XI *XmX/ S > c *X2XaX.Xs C #X3XgXq n -X#X<XjXvX1X-Xn OX>XaXvXOXV +Xt u K J V v e u I c 6XeXZ 7 l C #X,X8X8X9Xn *X<X9X3 M x =X2X",
"( ( U D U U 7 x :X2X2X}.a B n n s 1 v c x $X>X1X$XC n s >XaXvXOXm +X1 1 x c m #X+Xu I G / D Z p 3 4 3 0 a 0 b C #X<X8X0 C B =X<X",
"S i.i.^ / F 2 8 :XaX2X[.q e 6 6 0 1 s V =X0XVXAXdX=Xv t >XsXlX*Xm 8X0 p G G iXxX6X8 U ( / p [.%Xv m @XfXgX<X7XC v %X%Xe K V :X>X",
"L L ^ SX) H 7 4 :XaXaX[.s n n wXgXq i V y 8XNXAXlX=Xx |.<XjXjX:X=XwXa 7 S D ^ ) ( ~ ( H b 8X0X0X#XuX;XgX0X8X6Xr 0 0 0 u Y uX:X1X",
"D Z b F ( / , 7 :XaXaX}.#X-Xv 8XgXq i =Xs %XjXNXgX=Xx |.<XjXfX7X7XnX+X4 S L / ~ ^ D G I n +X%X+Xt =X;X5XgXbX7Xb s a 1 b Y uXuX>X",
"Z x :XfXs D , x =XaXsX}.v rX:X8XgX1 i =Xv ,XjXNX3XV v |.<XvX0X7X:XNX*X4 D S D L S 4 k > < 1 q 0 1 +X=X<XgXnX7Xr a  X1 m uX-X7X0X",
"6 7X-XhXkXp > m =X<X2Xt e rX:X0XgX1 i =XOX$X0XbX3XV s |.<XgX<XrXm bX*X4 S S Z 7 s u i k |.,X+X+X3 i =X3XgXnXV M +X6X1 u r 3 u t ",
"s uXC 0XlX.X2 C x x #Xq 0 J =X0X0X< i =Xs |.8XhXqXI n t |.OXOXI 7X9X+X> l S b 8X0Xx K C <X5X0X9Xu 6 #X3XgXbXm M #X6X1 m M M b 6X",
"x J c :X0X|.e N c c +X|.0 C =X0X2X1 i m u +XxXNX:X8 4 0 0 [.s x 5 e a > S M hX9X9X8 K N v 0XfXhXs 1 :X9XhXxXm m #X6Xe x I M #X8X",
"n C V :X*Xa 6 J J B wX5Xt C :X0X<X1 n V x *XwXwXt x i s %XgX,Xn C x e > N uXhX9X9X8 P N n wXgXnXOX2 #X9XwXnXG c #X6Xs 2 M c m +X"
};
