/* XPM */
static char *_daf91bc9da244399450a271e6e5d4f3hGjy5IR9LSCicdyB[] = {
/* columns rows colors chars-per-pixel */
"64 64 255 2 ",
"   c #285D2E",
".  c #197433",
"X  c #356E33",
"o  c #257637",
"O  c #58743B",
"+  c #16365C",
"@  c #061E6A",
"#  c #08276B",
"$  c #0A2B6C",
"%  c #0A376B",
"&  c #0C326D",
"*  c #153969",
"=  c #072974",
"-  c #0B2C74",
";  c #0A2D7A",
":  c #102D76",
">  c #0C3374",
",  c #0E3C73",
"<  c #0D337B",
"1  c #0A3678",
"2  c #113473",
"3  c #123C74",
"4  c #11357B",
"5  c #123B7C",
"6  c #1B3C7B",
"7  c #223D6A",
"8  c #603C61",
"9  c #1B4A5A",
"0  c #26495F",
"q  c #285959",
"w  c #3A5C5E",
"e  c #30714D",
"r  c #386559",
"t  c #19446A",
"y  c #195261",
"u  c #0E4476",
"i  c #134375",
"p  c #1A4777",
"a  c #154A75",
"s  c #14447B",
"d  c #164B7B",
"f  c #1A4C7B",
"g  c #1B5476",
"h  c #175876",
"j  c #16537B",
"k  c #1B547C",
"l  c #1B5B7C",
"z  c #274965",
"x  c #3A486F",
"c  c #295469",
"v  c #365968",
"b  c #244775",
"n  c #265679",
"m  c #375B75",
"M  c #1D637C",
"N  c #1E6A7D",
"B  c #2A6868",
"V  c #3B6467",
"C  c #347967",
"Z  c #23647A",
"A  c #396576",
"S  c #764D54",
"D  c #497055",
"F  c #534F6B",
"G  c #5E5E63",
"H  c #6A5369",
"J  c #486A69",
"K  c #476A74",
"L  c #507474",
"P  c #A63D3C",
"I  c #DB311F",
"U  c #CE3E2E",
"Y  c #D53823",
"T  c #E33823",
"R  c #9A5A33",
"E  c #B34D33",
"W  c #B47033",
"Q  c #CA5E1D",
"!  c #CD4825",
"~  c #D74C25",
"^  c #C85A26",
"/  c #D55925",
"(  c #CC5633",
")  c #E74723",
"_  c #E75727",
"`  c #CA6525",
"'  c #D86928",
"]  c #D5742C",
"[  c #DA742C",
"{  c #DB792C",
"}  c #D06C34",
"|  c #D87C34",
" . c #E86A2A",
".. c #E7772C",
"X. c #F1782A",
"o. c #E57933",
"O. c #F27E34",
"+. c #894B4F",
"@. c #AC4D4C",
"#. c #98725B",
"$. c #B86E4E",
"%. c #97726B",
"&. c #AC746E",
"*. c #CE7846",
"=. c #C46752",
"-. c #2C853C",
";. c #39883A",
":. c #3D953F",
">. c #468438",
",. c #4F913C",
"<. c #679339",
"1. c #779B3C",
"2. c #3A8A46",
"3. c #3B9443",
"4. c #388257",
"5. c #4D8B4E",
"6. c #439C43",
"7. c #489A45",
"8. c #6D9147",
"9. c #49A044",
"0. c #57A04C",
"q. c #6A8774",
"w. c #B38937",
"e. c #8AA73B",
"r. c #95AC38",
"t. c #9DB237",
"y. c #B1BD2F",
"u. c #A7B737",
"i. c #CE8835",
"p. c #DD8537",
"a. c #F1852E",
"s. c #E78836",
"d. c #EC8B34",
"f. c #F38C32",
"g. c #E9933A",
"h. c #EC943B",
"j. c #F49637",
"k. c #F39B3B",
"l. c #F6A43D",
"z. c #F9A53D",
"x. c #97954C",
"c. c #8D9F57",
"v. c #AF8D4C",
"b. c #B08872",
"n. c #D88945",
"m. c #D19150",
"M. c #EA9A46",
"N. c #F39D43",
"B. c #E9A449",
"V. c #F4A443",
"C. c #F8A743",
"Z. c #F3A44A",
"A. c #F6AA4C",
"S. c #F8AC4D",
"D. c #EFAA51",
"F. c #F5AD51",
"G. c #F7AC52",
"H. c #F7B358",
"J. c #C59167",
"K. c #D1A76F",
"L. c #F2B463",
"P. c #0D3384",
"I. c #0E3887",
"U. c #143785",
"Y. c #123B84",
"T. c #10368B",
"R. c #123C8A",
"E. c #0F4088",
"W. c #154483",
"Q. c #194585",
"!. c #154B84",
"~. c #1A4C84",
"^. c #15448C",
"/. c #1A448B",
"(. c #164A8B",
"). c #1A4C8C",
"_. c #1B5483",
"`. c #1C5C82",
"'. c #195886",
"]. c #1C538B",
"[. c #164593",
"{. c #194693",
"}. c #1B4B94",
"|. c #174898",
" X c #1B4C9B",
".X c #1D5293",
"XX c #1D5895",
"oX c #1E539B",
"OX c #244B87",
"+X c #245988",
"@X c #224D98",
"#X c #225494",
"$X c #22549C",
"%X c #275999",
"&X c #235B9C",
"*X c #355390",
"=X c #1D6382",
"-X c #1E6586",
";X c #1F6190",
":X c #246684",
">X c #266297",
",X c #336B91",
"<X c #164AA2",
"1X c #1C4EA2",
"2X c #1E52A3",
"3X c #1D51AB",
"4X c #2254A3",
"5X c #255AA4",
"6X c #295CA4",
"7X c #2255AA",
"8X c #255BAB",
"9X c #295DAC",
"0X c #275DB2",
"qX c #2862A8",
"wX c #2B63AD",
"eX c #3668AB",
"rX c #2B63B3",
"tX c #2C67B8",
"yX c #3169B6",
"uX c #46588B",
"iX c #506E8F",
"pX c #667899",
"aX c #5171AB",
"sX c #2F6DC2",
"dX c #8B798C",
"fX c #7088B5",
"gX c #7589BB",
"hX c #7B91C3",
"jX c #58AAD8",
"kX c #71ABD7",
"lX c #98898E",
"zX c #AD908B",
"xX c #8995B6",
"cX c #A69CA6",
"vX c #AAA7A3",
"bX c #A7ABBA",
"nX c #B1AFB3",
"mX c #C4B897",
"MX c #869AC6",
"NX c #929FC5",
"BX c #8BA3CC",
"VX c #95A8CA",
"CX c #93A9D1",
"ZX c #9BAED3",
"AX c #95B1D3",
"SX c #9AB2D7",
"DX c #ADB6CA",
"FX c #A6B9D8",
"GX c #A5BBE1",
"HX c #AEC4DE",
"JX c #95CBE9",
"KX c #A9CFE8",
"LX c #B6E0F3",
"PX c #CAD2DE",
"IX c #CEDAED",
/* pixels */
"#X].d ~.Q.5XoXj 1 Y.[. X4 s I.E.^.|.}.W.3 - ^.$XwX'.l > < 5 |.T.1 f i d d W.Q.).#X4 % k ^.I.{.oX$X- k h !.^.2X6X> t w D D J v c ",
"m n j ]. X9XoXa , Q.|.oX< a s ). X X{., a > ).5XrX'.l - < Y.|.Y.1 j s d k ^.^.).$XW.$ k !.Y.|.4X4X- h h W.^.2X8X> * v D D r v v ",
"c t '.XXoX9X Xu i /. X4XY.a s (.|. X^.1 l , }.4XrX_.j - - U.].5.% s W.d l W.). X&X^.$ l !.Q. X4X4X- h l 5 R. X8XY.+ w w w J + f ",
"Y.k `.oX2X4X{.i s /.2X4XY.a W..X X X^.- l s $X8XwX!.d & $ ; n 0.9 h _.W.l f ). X&XQ.% k ~.[.2X8XoX- h M _.oX4X9XW.0 r v z t g d ",
"5Xk M 2X2X2X}., s ).8X8XU.a !.&X1X1X[.> j s 4X8X8X!.a & < R.B 9.q l .X^.l f /. X&X{.% l ).[.4X8X X< , 1 > < < ^.5 0 V c * M Z `.",
"5X_.M XXqX7X}.% f }.8X8XP.a d &X1X2X[.> j s 4X9X2Xk s W.|.9XC 9.r ~.&XQ.q _.Q. X5X}.% l ~.[.2X9X X; d _./.|.@X}.> z z $ - k l 1 ",
"5Xf M ].qX4X}.& k }.wX9X; a s #X X2X[.1 j s 2X0X#Xe t Q.[.2X4.7.D A iXV O n Q. X&X).i l !.[.oXwX X- k =XR.R.2XwX$ * 3 P.- a l ).",
"4Xs N (.qX7X|.$ k Q.rXwX- i d }. X4X^.1 j W.2XrXn 5.V m ).@X2.7.5.L L 5.<.n Q. X&X/.a l W.[.2XrXoX- f !.T.P.R.6X# k .X|.Y.N l ).",
"%XW.M !.qX8X[.# k W.rXqX- i k ). X7XR., k W.2XrX~.7.e v V V 6.7.5.v n 8.1.f Q. X:Xz h l W.[.1XrX2X= d ).|.|.8X$X& =XXX}.> M _.^.",
"K p =X!.qX8X[.# _.^.yXwX< i g ].4X7XR.d g V 2XrXR.7.e w J r 7.7.5.c V e.1.d Q. X4.e l k Y.[.1X0XoX= i (.|.1X0X}.3 =XoX}.- l !.^.",
"K v =X!.8XwX}.= s ^.$X5XY.i M '.5X7XP.k k 8.V rXI.2.6.r b 9 9.9.2.l 8.t.8.d Q.Z 6.e l g < {. X9X2X# i (.|.1X0X{.i '.4X X- l !.Q.",
"OXn =X(.8XrX X= , s ).}.5 i l ].9X7X< l j D e.,XI.e 6.e ^.B 7.7.2.B r.u.D d f 2.7.B l , 4 ^. X4X2X# i (.|.7X8X/.s #X4X X$ l _.^.",
"5Xs -X(.8XtX|.= j -XoXrX^.i l ].qX2X1 l M A u.q.P.q 6.3.k B 7.7.2.5.y.t.J f C ,.7.c l d ~.). X4X X= i (.|.7X8XQ.d &X7X@X- l ~.^.",
"4X!.'.(.2XtX|.# k _. XtXR.d h ].wX4X- `.k ~.r.r.z 9 ,.6.B B 6.6.;.1.y.r.A c 7.7.3.i i & # = P.U.R.# s (.|.7X8X^.d .X5XoX- `._.).",
"I.!.'.]. XrX[.$ l j }.rXR.d k #XwX2X- l s W.q.u.8.9 3.7.4.B 6.3.;.e.y.e.Z e 9.9.4.< > d 5 R.^.^.R.@ 5 ^.|.1X8XU.d ).4X X- `.~.Q.",
"}.'.=XXX2XrX^.> l l oXwXR.l N %XyX X> l ).).+Xt.u.D 4.6.2.o 6.:.;.r.y.8.q 9.9.9.C q s _.).|. X6X6X$ s ^.|.2X0XY.d ].}.R.$ `.d !.",
"6X).].{.4X5X{., M l XX8XR.k M #X&X{.2 k #X%X#X8.t.e.e 9.3.. 6.,.;.r.u.D 5.6.6.3.D D a _.^. X X4X}.5 d (. X7X8XW.a _.).R.> =Xa ~.",
"6X, % d (.|.|.u M `.oX8XU.3 i < - - 2 _.B >X5XL u.r.,.3.6.. 6.,.;.r.r.o 6.7.3.o 1.e a _.).4X7XrX[.5 d (. X7X8XW.a !.4X^.< M i ~.",
"5X5 k _..XqX[., '.].XX8X1 2 u Y./.Q.- 5 q 5.:X+X8.r.e.-.6.. 6.:.;.e.>.6.6.3.;.1.1.9 k d ).7X0XrX[.- !.(. X7X8XU.s (.oX}.5 M i !.",
"5X5 h d ^.8X}.& ]. X4X8X- a k Q.}.$X4 3 a e 0.B q e.r.>.3.. 3.3.;.,.6.6.3.;.<.r.D & c g }.7X0XrXR.# d (.|.2X0XU.a ].oX Xs M k k ",
"9X5 l !.).wX4X& ~. X7X8X- % d ). X4XR.s _.g 2.,.e >.1.<.-.. 3.3.. 2.3.:.-.>.r.<.V e 5.g }.4X0XtXT.# f ^.|.2X8XY.f ].oX|.5 a , & ",
"rXW._.]..XwXwX; j ].0XrX- & k }. X5XU.i ).4X,Xe ,.,.,.<.o -.-.o o 3.;.-.;.e.<.>.7.,.e d |.2X0XtXU.& f ^. X7X8XY.d ].oX X!.l d Q.",
"rX(.!.].].yX8X; s (.rXtX# & l ].$X%XR.s }.8XtX>Xe -.9.X X -.. . 3.-.-.X 8.>.,.7.-.q Z ~.{.2X3XrXU.a j (. X8X8XY.s ].7X2Xd M ~.~.",
"tX^.!.].XXwX2X= t b 4X8X- t A A A A p f $X8XrXrX3 q o >.X     X X   X >.;.,.-.o y & `.~.{.2X3XrX4 f d (. X7X8XU.3 ].8X2Xs n m L ",
"R.P.!.}.4XyX<X= t A n ).+XK J J K A * f 4X7X0XtXY.z S R ^ / ^ E ^ ^ E R D q a R.R.$ `.~.{.5XaXfXfXiXd {.|.3XrXP.3 ].9X4X6 v v c ",
"4X[.k ].oXtX<X= t q r J J J v c 7 2 < f XX0XtXeXH ( ..s.o.' o.d.' ' .. .^ +.uX4XoX5 `.k (.6XZXVXFXaXd (.[.2XrXP.3 ~.6X X3 t 6 ^.",
"sX2X`.`.).rX1X; z w J v v c a ^.@X|.< k ].7XuX$.' ' d.s.[ a.f.f.f.a.[ / ' ..} H @X- l k ).%XHXFXFXn 3 5 [.|.oX; 3 u {.^.- > /.[.",
"tX2X:Xl .XtX2X; z c t Y.2 t M .XwX X2 l +XF / X.a...^ ^ d.j.f.o.j.f.' ' ' a.O./ H - k d , 3 FXDXxXk 5 4 < P.U.- s W.).Y.> 3 /.[.",
"0X X:X`.oXtX2X= * 3  X4X- i `.}.rX X> n +.^ X.a.f.[ { o.[ d.k.j.f.[ s.k.a.[ ..a.} x d f i Q.CXIXfX+XW.oX6X$X4XY.l -XXXoX> 3 /.[.",
"8X^.:X_.}.yXwX@ a ).rXtX- a M XXtX2X2 +._ ..f.f.Q d.k.l.k.` s.j.` h.k.k.j.d.[ Q ' @.n d Y.I.MXIXaX_.~.oX7X4X8X).:X>X7X2X1 , /.}.",
"8XW.-X_.&XtX8X@ d #XtXrX; j N >XtXrXF ~ X.a.a.[ h.l.V.C.S.V.] ` N.A.S.M.Z.V.j.[ ^ / S ~.[. XhXPXuX!.{.4X4X4X4XW._.&XrX1X3 , Q.{.",
"9Xs =X_.$XrX X> k %XrXrX< l =X'.XXQ.P ! ....' h.C.Z.M.H.H.s.| s.] M.S.A.S.A.d.Q o./ E n ).$XMXDXaXW.). X2X0X2X5 ].5XrX[.i d _..X",
"rX!.`.`.6XrX X`.l >XrX8X; i % % < F _  ./ ^ j.S.H.H.H.F.p.[ A.z.k.] h.A.A.k.' d.s.*.$.iXgXVXIXIXfXp s /.4XrX X, _.5XtXT.d d _.].",
"9X_.:X=XqX7X[.:X:X;X5X X- l N _.@XE  .O.' *.b.K.L.H.V.| s.l.z.z.z.k.{ s.d.' s.j.m.cXVXNXFXHXIXHXaXd d Q.4XrX X> _.4X0XP.k k `._.",
"4XW.i > Y.U.< ~.u < T.P.# M `.E.8 )  .^ J.VXBXMXxX&.` s.z.z.l.z.z.z.l.{ Q s.l.V.M.%.%.+.*XaXaXeXW.d l ).4XrX X> _.4X7X- l l l _.",
"R.i a ].6X^.< , j .X$X5X- l !.@X@._ / *.xXfXjXjXAXlXn.l.z.z.g.M.C.C.A.p.p.] g.A.A.j. .! uX7X8X9Xs k _.).4XrX|.> ~.4X1X- M M h !.",
"5X].h (.[.|.[.Z _.{.4X5X$ l !.*XU ~ [ zXBXkXJXJXjXxXW N.A.C.Z.Z.F.S.| p.V.k.[ g.A.N...! S 1X7X4X5 f !.{.4XrX|., ~.$X[.- h a l s ",
"wX].-X(.1X3XR.`.(.2X8X X$ l _.F Y / s.vXBXKXKXKXkXxXn.` N.S.F.F.A.s.] l.z.z.k.` g.k.' ~ E @X4X4XP.d !.|.4XrX|., `.XX X- f s , 5 ",
"wXW.M (.1X<XP._.!..X4X X$ k `.S U  .d.cXCXKXKXKXFXxXM.h.{ M.S.F.M.p.z.z.z.z.z.k.] ..'  .~ uX2X8X4 d !.[.2X8X|.i `.oX4X- > > # # ",
"wX5 M !.1X3X; k j ].$X5X$ k `.+.!  .j.b.CXCXFXVXCXb.V.l.k.` s.h.] l.z.z.s.C.C.C.h.^ ..X._ H 1X8X5 f !.[. X8XoX, `.XX2X= u j _.).",
"5X5 M !.2X2X; d !.].oX&X$ l `.P ) ' ' o.&.xXBXxX%.n.C.C.C.l.] ^ k.C.C.S.n.F.S.S.g.| '  ._ +.2X4X2 k !.[. X4X7Xu M XX4X- j l !.4 ",
"$X4 l !.4X1X; a !..XoX}.$ k m Y _ X...^ | m.m.m.B.p.A.S.S.C.] | ] A.S.F.A.S.S.Z.| Z.d./ _ +.@X2X5 M _.{. X1XqXu h .X7X> k `._.Q.",
"oX4 =X).8X X- a ~..X4X|.$ k F Y _ X.[ s.' s.A.S.F.F.F.F.Z.] M.C.s.| A.F.S.F.N.' h.l.j...! +.@X4X).k s Y.^.{..Xu a i W.$ l `.!.Q.",
" X5 =X}.wX|.- f !.(.4X$X$ k S T _ ' s.N.j.{ [ V.S.F.H.A.| g.C.z.l.d.] M.C.N.{ g.z.l.j.a._ @.@X4X^.3 $ # # - 5 , s Q.Y.- l =X!.^.",
"}.5 M oXrX[.- k _.).5X&X% l +.T ~ ' f.k.z.z.s.' N.F.A.] s.z.z.z.z.z.V.] d.{ s.z.z.k.d.a._ E %XoXY.k f ~.).Q.6 i ~.5XwXY.k M W.^.",
"|.s M &XtXR.& M _.].6X X# l +.Y / X.f.k.l.z.z.g.[ s.] p.l.z.C.h.C.S.S.M.` ` k.C.z.k.{ a._ E *X XI.f ).[. X%X< 3 ).5XqXY.g l W.}.",
"}.d :X%XrXP.2 Z +X>XqX|.$ k +.Y _ X.f.s.l.C.l.l.M.$.b.J.B.A.F.n.H.H.H.g.{ { | S.V.k.j.f.! E *X4XY.f .X1X$X8X< i ].$X5X4 d h ).2X",
" Xf j >XwXT.i l ].#X#X[.= h +.Y _ X.f.{ V.V.A.K.bXFXHXHXnXK.H.L.L.L.Z.[ k.V.} m.D.A.Z.o.! ! *X8XY.k .X2X4X9X; i ].$X$X1 g Z +X9X",
"$Xf `.&X7X X< % , , 4 - - f +.Y ~ O.j.j.A.H.K.DXBXBXCXBXZXbXK.L.L.D.' h.V.K.bXbXvXL.N./ _ ! *X4X5 d }.2X4X9X; i ].$X$X- n V L iX",
"5 f _.qXyX1X< l ].]..X[., k P T Y  .N.A.F.D.cXMXCXGXGXGXBXHXmXL.F.[ d.l.K.DXAXkXAXcX[ / _ ! *X1X4 d }.2X4X9X- d _.$X$X- n K J J ",
"> i u (..XR.5 j ^.|.wX X< l P T ) ~ [ d.d.m.FXMXFXFXVXFXSXMXnXp.[ o.V.B.nXFXjXjXjXSX$. ._ E @X2X4 f  X4X4XwX< a ].$X$X2 c V L L ",
").i 3 , 5 Y.& _.{.4XyX|.- M E T ) _ ` ' ' zXSXBXFXFXxXGXFXMXbX*.[ k.z.B.bXAXkXKXKXFX&. .) @.%X5X4 f ).$X4XrXY.s }.$X.X2 c v V K ",
"+XM `.qXwX X$ _.}.4X0X[.> Z +.Y ) _ ..^ ` cXMXNXFXDXFXMXVXMXNX$...V.C.B.bXAXJXLXHXZX&._ T +.$X&X6 g s @X8XrX/.d ].$X#X: p * t b ",
").l ).rXeXA + k }.1X7XR.< =XS I T )  .' } bXhXVXVXgXxXMXBXVXVXK.[ g.S.D.lXSXCXVXZXDX} ~ Y +.,Xm * l s {.rXtX Xd ].$X$X- f 3 k }.",
"~.Z ).,XK v + a ). X1XR.5 l F U T ) ! X.n.DXgXCXgXMXxXMXBXCXVXK.k.[ A.F.D.lXFXVXPX&._ ( @.H z 9 t l ~.}.}.@X#Xd ). X#X# k i _. X",
"L K A v A A * i ]. X XT.4 k x @.=.( } X.n.DXfXCXCXBXMXBXMXCXVXK.l.s.[ V.A.M.$.J.*. .=.@.@.F z * $ $ $ - 4 : p l ~.}.@X- l k _.}.",
"v q.q.L K b # * ]. X1XP.; > 2 #.#.W | m.m.bXfXVXMXMXgXgXFXBXMXK.A.C.| { d.....X. .$.&.%.%.b 4 /.s f !.5X6X@X+Xl s /./.> M l ].[.",
"V V L fXL m * & ].1X1XP.5 d d q.$.v.n.] x.DXfXZXFXFXSXZXBXMXVXJ.F.A.j.] ' / .. .*.J.&.%.dX@X$X$X~.=X'.7X$X@XOX, - - - 2 Z :X].|.",
"v z p b L J 0 * ].1X1XP.~.`.s iXx.W w.W v.nXgXFXFXFXZXZXZXhXDXm.B.B.w.i.W [ o.o.*.m.b.lXiX/././.< _.'.oX5XqX+Xp 6 4 # p :X:X:X[.",
"z i ].4X6 v + a ].1X2XU.s =X].*Xc.w.i.$.W zXhXZXFXZXZXZXZXgXnXM.s.g.w.| W W w.*.n.m.&.pX@ = ; - # ~._. X5XwX+X, 4 Y.# f :X_.+X$X",
"$ l `.6X8XY.+ f _.}. X< > =X].$X6Xx G #.W cXMXCXSXZXZXZXZXvXvXn.n.i.W w.w.` W v.*.#.L b Y.{./.Q.$ 3 _..X5XwXk k Q.@X# 2 , $ 2 4 ",
"3 Z l $X8XR.$ l i s ~.; $ =X_.$X$X# 3 n x uXpXfXMXCXZXZXBXmXcX( w.W W W R W S H uXp Z l ).oX$X#X2 & ~..X5XqXf k ~.OX# f g g p OX",
"i M a ].$XY.- h a s Q.Y.- n _.$X X# 3 f 2 Q.qXeX#Xt * 6 6 OXOXn z F F w J m >X#X#X3 N l s $X4X6X6 $ _.#X6XqXf f ~.OX- p Z g ~.@X",
"d l l ].).4 & M M j &XoX< l ].%X X# f l s ).&X&X< i 3 5 /.5X{.f l d > + h :XqX#X#X3 Z h d &X5XwXW.# ~.#X6XwXl f ~.OX5 $ k a f Q."
};
