/* XPM */
static char *d24e7f66924a4e30bd63de855cacc60ceCRBZQLLRxiLWYW7[] = {
/* columns rows colors chars-per-pixel */
"64 64 231 2 ",
"   c #0A2767",
".  c #0D2A61",
"X  c #07256F",
"o  c #0A256C",
"O  c #0B2B6D",
"+  c #102C64",
"@  c #122F6A",
"#  c #0D3466",
"$  c #07356B",
"%  c #0C336D",
"&  c #0E3A6D",
"*  c #173C67",
"=  c #193A63",
"-  c #15356A",
";  c #12346C",
":  c #133B6C",
">  c #1A3C6B",
",  c #072570",
"<  c #092772",
"1  c #072B74",
"2  c #0B2C73",
"3  c #0D2F7B",
"4  c #102E72",
"5  c #073677",
"6  c #0D3474",
"7  c #0D3B74",
"8  c #0D337B",
"9  c #0E3A7C",
"0  c #113575",
"q  c #123C75",
"w  c #193A74",
"e  c #11357B",
"r  c #123C7C",
"t  c #1A3E7A",
"y  c #33565E",
"u  c #3B5C5D",
"i  c #3D615E",
"p  c #0E446F",
"a  c #1C4466",
"s  c #14436D",
"d  c #1D446C",
"f  c #1C4B6D",
"g  c #0E4174",
"h  c #0F4971",
"j  c #0E437B",
"k  c #134375",
"l  c #1A4375",
"z  c #144B76",
"x  c #1A4C75",
"c  c #14437B",
"v  c #19457B",
"b  c #154B7B",
"n  c #194D7C",
"m  c #165276",
"M  c #1B5376",
"N  c #175A76",
"B  c #1C5A76",
"V  c #16527C",
"C  c #1A547C",
"Z  c #175B7F",
"A  c #1C5B7C",
"S  c #234563",
"D  c #254C65",
"F  c #2C4E63",
"G  c #24456A",
"H  c #264C6B",
"J  c #2C4C6A",
"K  c #314F6D",
"L  c #265366",
"P  c #2D5364",
"I  c #26526C",
"U  c #2D536C",
"Y  c #2A5969",
"T  c #335664",
"R  c #345963",
"E  c #3B5D63",
"W  c #35576C",
"Q  c #345B6D",
"!  c #3A5D6C",
"~  c #224674",
"^  c #234A74",
"/  c #284C78",
"(  c #225373",
")  c #2C5273",
"_  c #245C71",
"`  c #295D72",
"'  c #20567E",
"]  c #2E557A",
"[  c #205D7D",
"{  c #2E5C7B",
"}  c #355B74",
"|  c #3C5D73",
" . c #34557D",
".. c #345B7B",
"X. c #1D627C",
"o. c #3C6163",
"O. c #3D626B",
"+. c #3C686A",
"@. c #266173",
"#. c #21677E",
"$. c #216A7D",
"%. c #336475",
"&. c #3C6475",
"*. c #3F6A71",
"=. c #3A647C",
"-. c #44655D",
";. c #456864",
":. c #43656D",
">. c #46696D",
",. c #4C6D6D",
"<. c #4D716D",
"1. c #56756E",
"2. c #416571",
"3. c #466B74",
"4. c #4A6C72",
"5. c #436A7A",
"6. c #476878",
"7. c #506D70",
"8. c #4F7471",
"9. c #4A777E",
"0. c #5C7E76",
"q. c #567779",
"w. c #627E7D",
"e. c #0D2F81",
"r. c #0D3382",
"t. c #0D3A84",
"y. c #0E358B",
"u. c #0E3C8A",
"i. c #113682",
"p. c #133C83",
"a. c #1A3E82",
"s. c #113689",
"d. c #143D8B",
"f. c #193F8C",
"g. c #0B3692",
"h. c #143D91",
"j. c #154383",
"k. c #1A4484",
"l. c #164B83",
"z. c #1A4C84",
"x. c #15438B",
"c. c #19458B",
"v. c #174A8B",
"b. c #1A4B8C",
"n. c #165282",
"m. c #175786",
"M. c #1B5483",
"N. c #1C5B83",
"B. c #1C538C",
"V. c #1E5B8A",
"C. c #164493",
"Z. c #194593",
"A. c #174A92",
"S. c #1B4C94",
"D. c #16469A",
"F. c #1A479C",
"G. c #174899",
"H. c #1C4C9C",
"J. c #1D5393",
"K. c #1F5893",
"L. c #1E529C",
"P. c #1E5898",
"I. c #264887",
"U. c #224D84",
"Y. c #214D8A",
"T. c #2A5484",
"R. c #295684",
"E. c #215B85",
"W. c #21558D",
"Q. c #295589",
"!. c #225B8B",
"~. c #305D8F",
"^. c #204D95",
"/. c #204F9A",
"(. c #225495",
"). c #225B94",
"_. c #2B5B94",
"`. c #22549C",
"'. c #28569A",
"]. c #245B9C",
"[. c #295D9D",
"{. c #1E6282",
"}. c #1E6C81",
"|. c #1E628D",
" X c #216482",
".X c #226A82",
"XX c #22618B",
"oX c #356384",
"OX c #246295",
"+X c #2B6196",
"@X c #26629C",
"#X c #2B629E",
"$X c #396A98",
"%X c #1C4EA2",
"&X c #1E52A3",
"*X c #1E52AA",
"=X c #204FA4",
"-X c #2155A2",
";X c #2255A4",
":X c #2256A5",
">X c #2957A6",
",X c #245AA4",
"<X c #2559A6",
"1X c #295CA3",
"2X c #2256AA",
"3X c #255BAB",
"4X c #265BAA",
"5X c #295EAC",
"6X c #2155B0",
"7X c #255BB3",
"8X c #295EB2",
"9X c #275EB8",
"0X c #285FB9",
"qX c #2561A4",
"wX c #2B62A4",
"eX c #2662A8",
"rX c #2B62AD",
"tX c #2E6AAE",
"yX c #3268A8",
"uX c #2B63B3",
"iX c #2E69B5",
"pX c #2762B8",
"aX c #2B64BA",
"sX c #2E69BC",
"dX c #316AB4",
"fX c #3067BE",
"gX c #316ABC",
"hX c #416A87",
"jX c #477089",
"kX c #2F6CC1",
"lX c #316DC1",
/* pixels */
"_.B.C z.c.,XP.b 9 i.Z.J.c j t.x.c.S.b.j.k 2 x.`.1XXXC 7 8 a.G.y.5 C k n M.c.c.b.^.r 7 n v.t.Z.-X,X2 C M z.v.-X-Xr a o.-.-.;.y T ",
"} n C (.L.4XL.j c x.G.`.p.z c S.H.H.S.c z 9 b.,XeX|.A 5 9 a.H.g.7 C b b A j.c.b.'.j.7 C l.9 G.:X,X8 A A j.v.L.,Xe - U u -.u :.| ",
") s N.P.L.4XL.j c c.H.:Xi.z b b.G.H.C.7 M 9 c.,X,XV.V 5 8 p.&Xy.7 z j.c A z.b.S.].c.q M z.x.H.,X,X5 N A j.v.L.4Xj.a E u u o.S x ",
"p.m {.L.&X:XS.j c c.-X,Xi.n z.(.H.H.v.5 V l./.4X-XB.C 6 2 3 Z.e.& N l.j.A n c.S.].c.k m z.C.-X4X-X5 m X.C S.-X,Xk.F i y F a C n.",
"1XC {.-X&X:XS.c b S.4X4Xi.C z.].H.%XC.5 V l.`.5X-Xl.k % 3 s.d.r.: A B.v.M n c.S.].c.k M z.C.-X4X`.8 c c r p.c.S.c D R F - A X.M.",
",Xb {.P.,X4XZ.c b S.5X4Xr.C l.].H.&XS.5 z l.L.8X-Xl.b j.S.4XrXC.q C (.b.C n b.S.,Xb.b C z.C.&X5X`.8 z.z.x.C.Z.Z.r S S ; 6 M A c ",
"-Xv  XB.qX4XZ.c n S.rX5X8 C b `.H.&XC.5 V l.L.8XH.l x k.C.-X4Xd.~ { hX] C C c.S.,Xc.z A z.C.&XrX-X1 M.V.x.h.%X,Xk.* q 8 2 z A v.",
"`.v  Xv.,X4XZ.r n S.rX4X3 n b (.G.:XC.5 V l.L.8XZ.> U ) U.(.~. .3.8.8.} C C z.S.-Xj.m A l.C.&XuX-X1 n B.s.s.H.`.c x B.d.p.X.{.b.",
"_.r {.l.@X5XZ.q b b.rX4X3 b C J.H.2XC.7 C v.&X4XC.; D E ! &.4.,.>.Q ..U.V n z.S.-Xk.m A j.C.%XuX,X< b b.G.F.,X/.c N.K.x.9 A M.v.",
"5.l {.l.].5XZ.r b v.rXrX8 b M B.-X2Xx.q M.v.&X4XC.> P u ;.O.2.J L f ] Q.V n z.H.`.k.M C j.Z.%XuX,X1 k v.G.%X5XS.c V.P.Z.2 C l.v.",
"2.U  Xl.,XrXG.9 c v.-X,X8 b A m.,X:Xd.c M.v.&X4Xx.d T P ^ k.l J _ C Q.k.V n k.H.H.j.M z a.Z.H.8X4XX k v.G.:X5XZ.c ).-XZ.2 C z.x.",
"W.) {.b.,XuXG.9 7 l.b.H.8 b A B.4X:Xt.z M.v.%X4Xd.: d v v.H.h.- $.{.B.v.V n c.`.H.x.C g p.v.L.4X:X, k v.G.2X4XZ.c ).:XS.1 M.z.x.",
"4Xk {.b.,XuXG.9 z m.P.4Xp.n A B.uX&X8 V A b.H.2Xd.q b j.C.&X2Xd.A C j.Z.b n c.-X&Xb.C b r x.H.-XH.< k c.G.2X2Xc.c ].,XH.2 C z.v.",
"4Xj.{.v.:XuXG.9 C n.P.uXd.n.M B.dX-X2 C C v.H.2Xd.7 b c.G.&XrXC.7 1 2 9 n C b.,X2Xx.6 O o 1 r.t.d.X c c.G.2X2Xv.c J.,XS.6 C z.c.",
"u.j.N.B.L.rXC.9 A M.P.rXd.C A (.dXL.1 C c x.H.2Xd.q b Z.H.&XuXh.b q e 0 z C b.4X,Xd.9 b a.p.d.c.x.o c v.G.&X2Xx.q B.`.Z.2 C n z.",
"`.n.|.).4XrXC.7 A M.P.5Xv.A #.].dXH.2 N.b.b.`.:Xd.c b v.G.:X2X8 A b.S.x.7 C b.,X,Xi.c M.b.A.H.,XrXO c v.G.&X4Xx.c B.J.t.2 C c z.",
"rXz.B.H.-X4XS.c A N.].4Xx.A X.].1XZ.O N.).).,X&Xj.z l.C.H.2X%X1 X.S.&XH.6 A c.`.'.q z z.v.H.`.,XH.r z v.F.2X4Xx.z M.b.p.8 A b z.",
",X9 q c v.H.S.z X.N.].4Xi.k c 8 6 2 % M.#X[.5X&Xj.b l.v.H.2XH.0 .XJ.&XH.% C z.`.`.r z n.b.:X2XpXZ.r z v.H.2X2Xx.g b.L.d.r M b z.",
"-X0 M.M.J.4XS.c V.B.L.,X8 q k a.c.p.2 r z.B.`.L.x.b z.v.H.2XC.r {.S.&XH.% A l.`.`.c z n b.:X8XaXZ.6 b v.G.2X:Xx.9 b.L.C.c m z n.",
"4X6 A b v.,XH.r B.L.4X,X8 x C x.`.`.p.6 c r r j.r b z.x.H.2XC.c n.S.&XH.% A j.`.`.j.C b Z.2X8XgXh.2 l.v.G.*X*Xx.c J.L.C.b N V n ",
"rX9 N.l.B.4X`.r z.L.4X4X8 k n b.H.-XZ.q M.b.J.S.j.b z.x.G.:XC.k l.H.&XS.% A v.`.S.a.C b S.2X9XgXd.O z.v.G.&X4Xx.c W.`.Z.c z k % ",
"uX9 M.B.J.rX,Xj.b J.8X8X8 & C Z.%X-Xd.q B.,X4X`.j.c n c.G.=XC.c n `.4XS.% A c.`.S.j.C l.S.&X7XfXs.0 b v.H.2X4Xx.c B.`.S.l.C n z.",
"sXj.n.B.K.rX,Xx.c b.pX8X8 & A W.'._.x.c S.4XuX4Xj.k n z.H.2XS.k n '.rXS.6 A l.`.S.j.C M.S.&X6XaXe k z v.H.4X2Xx.c B.,XG.l.A n T.",
"aXd.l.J.].rX&Xi.l U.,X,Xe ^ %.=.=.=.v c `.4XpX5Xj.: n z.`.uXH.q M.`.rXS.7 b p.Z.x.r C z.S.&X*XuX8 x b v.H.4X:Xd.q B.,XH.l.( ..6.",
"H.t.l.J.:XuX%Xe G Q { Q.] 2.8.<.>.U w c `.7X0XpXc.: z v.L.uXH.q N.`.rXL.6 b p.C.d.r C z.S.&X*XaX3 M l.v.G.2X2Xp.q B.,XH.v U Q ..",
",XS.l.B.L.uX%X8 * P E O.,.:.R J G t 0 b ).7X0XaXS.k C M.`.uXH.0 {.].uXL.0 z.S.:XH.j.C n.S.%X2XuX2 A b v.G.:X4Xp.q B.,XG.r d v c.",
"lX4XC N.P.4X%Xe S R E W Q P f j.S.Z.0 n V.2X9XuXS.k k q Z.&XH.6 {.].uXL.8 j.H.,XH.p.C C c.S.].,X1 z q r d.F.S.8 6 c A.d.0 0 c.C.",
"sX4XM.N.).uX%Xi.S F ~ k.w f A S.uXH.6 C V.:X0XpXJ.z c c.-X4XZ.9 N.].uXL.8 z.&X2XH.p.k b r r c p.O C c c.c.d.x.e q l.B.p.q r x.C.",
"pXL.N.V.].uXH.i.* v S.-Xe z A S.dXH.2 A N.-XpXuXB.C l.L.4X:XH.t.n P.uX&X8 B.:X4XL.x.n n c k.v.G.O M.j.S.-X-X%Xc.n V.P.C.r r x.C.",
"uXx.{.M.(.iX,Xp.k J.rX4X8 C {.P.gX&XO A M.L.9XpXJ.n b.`.2X4X:Xt.C b.,XZ.8 W.:X4XL.l.M z p.s.G.=Xo M.z.H.,X:X,Xb.N.).4XG.r r c.G.",
"uX8 {.M.].iX-Xi.c ).uX8Xi.A }.OXgXuX6 A M.L.pXsX`.j.c.H.2X8X=X9 # c r i.0 B.:XuX`.j.C M.Z.F.2XH.< l.S.L.:X2X-Xj.m.].uXC.c q c.Z.",
"uX5 {.M.P.uXC.j.n _.uX7Xp.A {.!.].c.O N.m.P.8XsXL.c l.G.2X9X%Xj.C B.S.p.b V.,XpX`.r V M.Z.H.4XuXr.c v.H.&X8X-Xr B.,XpXh.b b B.J.",
"uXr  XXX[.uXL.V.N.[.uX4Xp.& $ $ 3 y.O E.B.-X8XsX`.l.c.G.2X9X2X8 v i.d.i.n !.-XuX`.k m M.B.H.,X5Xr.b b b.:X8XH.9 B.,X9Xs.n C N.B.",
"uXl.}.{.].4XC.V.}.|.,XG.9 X.}.m.%X7X1 N.b.2XpXaXL.l.l.S.-X8X4X2 n c.S.e v K.:X4XS.c C n c.H.2X4Xr.b b c.2XrX/.6 z.,X4Xs.C C E.M.",
",Xr z b c.x.8 b b j.C.d.6 X.{.x.h.Z.6 N.b.2X8XuXL.C m.S.:X4X4X2 C Z.S.e r P.2X4XH.l.A b c.:X,X4Xp.b C b.:X8XH.6 M.,X&Xe A A {.m.",
"c.q z B.,Xc.8 q C J.-X`.r A M.G.G.h.6 N.S.4XaXpXG.C n.S.%X2X4X2 A A.G.e v J.-X4XL.j.C l.H.2X4XrXj.n M.Z.:X8XH.6 M.-XH.r A X.A M.",
"4XW.Z j.H.%XA.N.V.P.,X`.r M z.H.%X:Xq N.`.4XpXpXS.b n.S.%X7X4X2 A A.H.0 n B.`.,XZ.c C l.Z.%X4X:Xe n z.S.:X4XH.6 M.`.C.r V z V b ",
"uXb.{.v.%X%XC.l.v.H.,XS.r A M.H.D.C.q N.`.7X9XpXZ.n V A.H.4X4X1 A b.-X9 V z.S.,Xc.9 C l.v.G.2X:Xi.b z.S.:X4XH.7 V.`.S.e b k 7 r ",
"iXr {.l.%X%Xu.c B.L.,XH.r C V.H.%XC.q M.L.7X0X8Xc.n n.A.F.2X4XO A A.-X6 z l.S.,Xc.9 C l.A.H.:X4Xe b l.S.&X2XH.k V.P.H.8 6 6 O   ",
"rX6 N.l.%X%Xt.c n.b.,X`.r C V.H.*XC.q n.L.2X9X5Xc.n m.S.H.2X:XO A S.`.6 m l.S.`.p.6 C V A.H.&X2Xr v l.C.%X2XL.g N.P.H.8 g b b p.",
",X6 N.l.L.%Xr.c n.b.,X`.c M V.H.*Xp.k M.-X7X0X4Xc.n m.H.H.2X:X2 A ].`.1 m l.S.`.p.6 C n.S.H.&X2X0 M z.C.H.:XL.j N.].L.r V Z l.p.",
"`.6 N.l.&X%X8 k l.b.`.S.r V m.H.&Xp.k B.2X7X0X8Xc.n m.`.%X-X,X< C #X-X8 z n.J.`.p.6 n B.L.H.%X2X0 A m.Z.H.:XL.b Z K.L.j.C N.n.k.",
"L.6 N.B.&XH.8 k n.S.-XZ.q z m.H.*Xp.k z.2X7X9XaXL.C N.].&XH.2X< C wX-X9 k b c.Z.8 6 C B.L.%X%X2Xc.n c i.d.Z.b.g k c r r C N.l.x.",
"S.0 N.J.:XG.2 c M.S.-X/.c V z.H.2Xi.k l.:X7X0XsXL.C A (.&X&X:X< A wX,Xi.q j.d.x.8 6 M V.`.%X%X:Xx.q 1 1 2 8 e k b c.j.0 M N.l.v.",
"S.r N.P.5XG.6 b m.b.4X(.k m b.L.2Xi.k b L.7X0XsX&XV N (.:X*X&X< A !.`.i.7 c.`.-Xx.q A A ].&X-X&Xp.b c j.k.k.r q z.`.,Xj.C A j.v.",
"Z.c  X,X5XC.6 C M.B.wXS.k m b.%X4X9 z V L.7XpXsXL.V m S.2X2X&X1 N.!.,Xp.6 b.,X4XH.j.M m (.-X-X&Xt.n b.S.S.S.a.q B.-X4Xp.C A l.S.",
"S.c  X@X4Xd.q A XXOXrXG.q m b.-X4X8 z V -X7X9XgXL.V C L.2X&X&X< N.z.,Xd.r S.rXtXH.j.A m J.,X-X:Xp.n S.&X-XL.x.q B.`.,Xe C A b.&X",
"S.v V OX,Xd.r A B.W.[.C.r z B.1X4Xi.k V H.7X9XsX&XV M b.H.%XH.2 N.j.,Xp.j.L.5XeXx.c V z L.2X-X4Xj.M.P.&X:XL.x.q B.`.L.e M @.+X5X",
"^.M.V.).,XH.9 6 6 6 6 2 0 z S.,XrXi.k V L.7XpXsXL.b C c c.H.L.r A a.L.3 z.L.4X:Xk.c A C S.&X&X:Xe C S.&X,X`.d.k B.`.`.e ( +.q.jX",
"e M.V.eXiX%X9 b m.B.J.x.r b L.,X4Xp.k V L.9XaXsX&XV m c v.H.&Xr A j.c.2 M.P.4X,Xk.k A n z.Z.H.H.8 b S.&X2X-Xj.z V.`.S.r ( :.,.7.",
"0 n z b.J.x.9 b x.H.rXH.p.C B.4XuXs.k m.`.7XaXsX&Xn.C b Z.%X-X0 A j.c.6  XV.P.,Xc.z C c j.v.H.-X8 l.H.:X:X,Xc.k B.`.(.t U >.1.q.",
"k.7 7 r x.8 6 z.A.%XuXG.r A {.wXuXr.k M.`.4XuXkXL.V C j.Z.&X,X0 A r c.%  XV.J.,Xc.n C q x.Z.`.1X0 b b.`.:X4Xb.c J.`.J.w I J ! &.",
"W.#.XX@XrXb.; b J.:X5XC.r A {.wXuXr.z N.J.,XuXlX,XM.n r x.:X4Xe [ a.c.% #.V.L.,XS.n m c c.S.`.wXw x k.^.4X8XS.c J.`.^.0 l > H / ",
"c..XB.tXyX] = k J.&X2Xh.c A V.1XrX8 z C j.`.gXlX,Xm.b r C.:XrXi.' p.a.% $.{.].'.k.l m n b.(._...G A z.S.5XuX`.c W.`.S.e x k ' S.",
"k..X!.$XoXW = k B.H.%Xs.j.C n.P.1X8 b N.M.L.4X4X`.M.z j.C.:XuXp.C c.e @ A A n.z.r q x M Q.R.} H # C c d.S./.b.b B.(.S.r C b M.H.",
"5.9.&.! &.} = w B.H.H.s.r z b c p.2 c z b b.H.H.S.M.b j.C.:XpXj.n b.2 O x x n z.a.l M { &.W G ~ O ; 6 e i.e v M.B.^.Z.r B C M.S.",
"4.0.0.,.6.] @ : B.H.F.s.9 g g c i.< r k c S.5XaX,Xm.c a.C.:X8Xc.n '.2 ; ( _ oXoXT.) %.3.! / a.c.0 z b S./.c.z.C v k.p.v A [ M.S.",
"R O.4.w.0.| > : b.%XF.s.c b c (.`.3 r M.c ^.rXlXeXM.b j.Z.:X2XB.M.1Xp.- Q Q 6.9.4.3.*.%./ b.H.1Xp.{.N.,X,X'.k.q 6 2 2 v #. XB.G.",
"! G /  .6.4.S : B.%X%Xs.z.N.k.`.4X3 0 n.r c.,XiXqXn.b k.Z.2X%X!.W.yXc.@ R O.:.4.,.O.` B v c.c.k.e n.V.`.,X1XW.q e e < n .X.XXXS.",
"S n m.(.Q.K S s m.L.%Xs.l.N.M.`.4X2 q M.k.Z.,XuX@Xb c k.Z.5XH.XXW.dXb.@ P R O.Q G - # # O 3 e e < b N.J.,XwX!.b t a.2 b  XM.!.S.",
"; {.V.].>XI.* z m.S.G.r.c N.B.`.4Xo q M.k.c.`.rXOXV r a.S.-XS..Xb tXb.+ U L H l r q k k a.Z.c.k.O q M.J.,XwXE.C z.k.2 6 q % 0 8 ",
"r #.N.`.-Xf.0 x V n k.3 q A M.].-Xo 0 M.v k.S.,X@X{.c e p.c.k.#.C W.k.. D I v (.b.b A A b.`.`.(.0 ; M.J.,X[.E.' Y.k.4 l M x v b.",
"b X.z B.L.p.O p h c c.i.r A B.].L.o 0 n 0 b.wXtXW.# . O 2 8 9 k # r 0 + Y ( (.wXB.z B A z.`.,X[.t O M.(.1X[.E.M U.Y.0 l A M z.S.",
"n X.N.B.c.0 % A X.A [.L.j.C W.].L.O k.C v b.[.].k.q l c b.,XS.n [ n 6 . _ E.].1Xb.x B B z.].,XrXk.  M.(.1XwXE.M U.Y.r 0 M x v c."
};
