/* XPM */
static char *d12a6ef4cec84e4ef10ff42c9ce5dcd5ALLWnmqDAojG88I6[] = {
/* columns rows colors chars-per-pixel */
"64 64 255 2 ",
"   c #010002",
".  c #070809",
"X  c #160802",
"o  c #060C14",
"O  c #131515",
"+  c #301808",
"@  c #392608",
"#  c #302B14",
"$  c #0D1826",
"%  c #0B1B37",
"&  c #162531",
"*  c #2F3534",
"=  c #4A1607",
"-  c #671803",
";  c #781903",
":  c #472B07",
">  c #593606",
",  c #4D3111",
"<  c #6A2D0D",
"1  c #54352D",
"2  c #733228",
"3  c #35463B",
"4  c #524917",
"5  c #68420A",
"6  c #784704",
"7  c #6B4A12",
"8  c #755214",
"9  c #6C6913",
"0  c #4C5332",
"q  c #6C552E",
"w  c #596A3A",
"e  c #696627",
"r  c #6E712E",
"t  c #7A762A",
"y  c #091C47",
"u  c #172946",
"i  c #0E304A",
"p  c #0B2758",
"a  c #17385A",
"s  c #2A3949",
"d  c #092769",
"f  c #0F2968",
"g  c #0B2B6D",
"h  c #122E6B",
"j  c #0C3769",
"k  c #0C326D",
"l  c #163868",
"z  c #072873",
"x  c #0B2C73",
"c  c #0A2D7B",
"v  c #0C3374",
"b  c #0E3C73",
"n  c #0D337B",
"m  c #0A3779",
"M  c #133577",
"N  c #133C74",
"B  c #133B7C",
"V  c #0F4656",
"C  c #25455A",
"Z  c #334A50",
"A  c #385659",
"S  c #3C6259",
"D  c #194568",
"F  c #0E4575",
"G  c #134375",
"H  c #154A75",
"J  c #14447C",
"K  c #1A4679",
"L  c #154B7B",
"P  c #1A4C7C",
"I  c #085771",
"U  c #185678",
"Y  c #1B547C",
"T  c #1C5B7C",
"R  c #274766",
"E  c #2B5468",
"W  c #355867",
"Q  c #255776",
"!  c #2E5274",
"~  c #1D637C",
"^  c #1E6A7C",
"/  c #3C6168",
"(  c #21657B",
")  c #366672",
"_  c #48514D",
"`  c #755249",
"'  c #546D4C",
"]  c #456559",
"[  c #6E754A",
"{  c #43596A",
"}  c #46676A",
"|  c #476973",
" . c #527174",
".. c #706F6A",
"X. c #787979",
"o. c #831C02",
"O. c #881D03",
"+. c #A53321",
"@. c #824D04",
"#. c #8A5204",
"$. c #945905",
"%. c #9A5C05",
"&. c #875C15",
"*. c #906A15",
"=. c #976818",
"-. c #AA7317",
";. c #A8741A",
":. c #867C32",
">. c #DC4329",
",. c #EB472D",
"<. c #A76F5F",
"1. c #C97F6C",
"2. c #7C821B",
"3. c #7B8432",
"4. c #6B8569",
"5. c #919406",
"6. c #959709",
"7. c #929313",
"8. c #AA9515",
"9. c #AFAB1B",
"0. c #908E2E",
"q. c #948D31",
"w. c #A49A36",
"e. c #A9A729",
"r. c #ABB928",
"t. c #B9B528",
"y. c #ABA538",
"u. c #B3AC3B",
"i. c #B7B63B",
"p. c #C4871E",
"a. c #C78A20",
"s. c #CE8E21",
"d. c #CF9126",
"f. c #E28A3C",
"g. c #C3BA2F",
"h. c #B5C42B",
"j. c #C7CA36",
"k. c #CEC830",
"l. c #DAD63B",
"z. c #E2D73E",
"x. c #909052",
"c. c #B2AF4A",
"v. c #8E8D72",
"b. c #99B676",
"n. c #ABA973",
"m. c #C4BC41",
"M. c #D1AF53",
"N. c #EBB344",
"B. c #D98D65",
"V. c #E89573",
"C. c #F4AA67",
"Z. c #BDC14B",
"A. c #C8C546",
"S. c #D3CB46",
"D. c #DCD546",
"F. c #CBCD54",
"G. c #CFCE54",
"H. c #D3D55B",
"J. c #E6DB46",
"K. c #E4DB4B",
"L. c #F2D14D",
"P. c #E8E446",
"I. c #ECE44C",
"U. c #F6E94E",
"Y. c #F4EC4D",
"T. c #EFE450",
"R. c #FAE257",
"E. c #F5EC50",
"W. c #FAEC52",
"Q. c #FDF353",
"!. c #D9DB66",
"~. c #CDCF70",
"^. c #F3C16C",
"/. c #DEE16E",
"(. c #E0E36F",
"). c #E3E573",
"_. c #E5E877",
"`. c #E8EB7A",
"'. c #0D3686",
"]. c #133B83",
"[. c #133B89",
"{. c #103A91",
"}. c #0F408A",
"|. c #154483",
" X c #194485",
".X c #154B84",
"XX c #1A4C84",
"oX c #15448C",
"OX c #1A458B",
"+X c #164B8B",
"@X c #1A4B8C",
"#X c #1B5483",
"$X c #1C5C82",
"%X c #185985",
"&X c #1C538B",
"*X c #164593",
"=X c #194693",
"-X c #174897",
";X c #1C4B94",
":X c #1C4C9B",
">X c #1D5294",
",X c #1E539C",
"<X c #1F5998",
"1X c #214B86",
"2X c #235889",
"3X c #204E97",
"4X c #225394",
"5X c #22549C",
"6X c #265B9B",
"7X c #0A6D8E",
"8X c #1D6382",
"9X c #1E6786",
"0X c #216583",
"qX c #336690",
"wX c #1C4EA2",
"eX c #1E52A3",
"rX c #1D53AB",
"tX c #2255A3",
"yX c #255AA4",
"uX c #255BAB",
"iX c #285CA9",
"pX c #285EB1",
"aX c #0079A1",
"sX c #2963A8",
"dX c #2B62AC",
"fX c #2B63B3",
"gX c #2C67B8",
"hX c #326AB5",
"jX c #647983",
"kX c #306DC1",
"lX c #078AB4",
"zX c #2585A3",
"xX c #568596",
"cX c #749AA8",
"vX c #00A1D4",
"bX c #878687",
"nX c #939797",
"mX c #9CA29B",
"MX c #AAAAA9",
"NX c #B0B0AC",
"BX c #B9B9B9",
"VX c #E3A894",
"CX c #9CC4A4",
"ZX c #D6D4A1",
"AX c #98B9CB",
"SX c #AAC4CE",
"DX c #9DDCF6",
"FX c #C9C9C9",
"GX c #CDD2D1",
"HX c #D6D7D7",
"JX c #ECE3D9",
"KX c #E8E8E8",
"LX c #F3F3E7",
"PX c #F5F4F4",
"IX c #FEFEFE",
/* pixels */
"4X&XL XX XyX,XU m ].=X:Xn J '.}.oX-X;X|.N x OX5XdX$XT v n B -X'.m Y G L L |. X@X4Xn j Y oX[.=X,X5Xx Y U .XoXeXyXv D A ] ] } A E ",
"! Q L &X:XiX,XH b  X-X,Xn H J @X:X:X=Xb H v @XyXfX&XU v n ].-X{.b Y J L Y OXoX@X5X|.g Y .X'.-XtXtXv U U |.oXeXuXv l W ] ] S W W ",
"E G %X<X,XiX:XF G OX:XtX].H J +X-X:XoXm U b =XtXfX#XU x x ].-X{.k J ].J U |.@X:X6XOXd U .XoX:XtXtXv T T B [.:XuX].l A A A } a P ",
"].Y $X,XeXtX=XG J OXeXtX].H |.>X:X:XoXv U J 5XuXfX.XL k g c [.c k U .X|.U P @X:X6X Xj Y XX=XeXyX,Xv U ~ #X,XtXiX.XC S W C D U L ",
"yXY ~ eXeXeX;Xb G @XuXuX].H .X<XwXwX*Xk S A qXqXqXW w w 0 A K B C ' ' ' ] W ! ) [ r r w ] { ' [ ] D D A _ R n oXB C / E l ~ ( $X",
"yX#X~ >XsXtX;Xj P ;XuXuX'.H L 5XwXtX .t.l.k.t.9.9.g.I.I.J.k.9.9.k.P.W.P.l.g.t.t.l.Y.Y.l.g.k.P.Y.l.k.k.l.k.7.2X;Xv R R d x Y T m ",
"tXP ~ &XsXtX;Xk Y ;XdXpXc H J >X:X| j.Q.I.Q.Q.Q.Q.q.Q.0.m.S.A.Q.Q.Q.K.S.Q.0.Q.D.Y.Q.Q.Q.Q.Q.Y.l.P.Q.Q.Q.P.9.r dXg l N '.x H T @X",
"tXJ ^ +XsXuX-Xg Y  XfXdXx H L ;X:X3.J.I.h.I.Q.Q.Q.e t * t 4 D.Q.Q.Q.g.w.u.4 Y.# I.Q.Q.Q.Q.Y.h.r.h.Q.Q.Q.l.F.7.qXd Y >X-X].^ T @X",
"6X|.~ .XsXuX*Xd Y |.fXsXc G Y @X,X3.z.P.j.Y.Q.D.n.BXPXIXLXMXc.E.Q.S.x.nXFXFXMX..D.Q.Q.Q.Q.l.r.r.j.Q.Q.l.A.).i.] k 8X<X;Xv ~ #XoX",
"| K 8X.XsXuX*Xd #XoXhXdXn J U &XtX0.I.Q.Y.Q.I.n.LXIXIXIXIXIXBXG.S.mXKXIXIXIXIXPXn.K.Q.Q.Q.j.r.h.P.Q.z.A.).`.!.w N 8X,X;Xz T .XoX",
"| ! 8X.XuXdX;Xz J oX5XyX].G ~ $X' l.Q.Q.Q.W.x.LXIXKXGXHXIXIXPXx.v.PXHXGXLXIXIXIXGXc.Q.Q.Q.l.j.P.Q.Q.D.).`.`.`.c.S 2XtX;Xz T .XoX",
"1X! 8X+XuXfX-Xz b J @X;XB G T Q e.Q.Q.Q.Q.c.FXIXHXqXlXzXFXIXPXbXKXmXzXlXjXPXIXIXIXx.Q.Q.Q.Q.Q.Q.Q.Q.S.).`.`.`.).e.) tX:Xg T &XOX",
"yXJ 9X+XuXgX-Xz U 9X<XfXoXG T ] k.Q.Q.S.q.[ IXIXE lXI vXcXIXFXFXSXlXaXlXlXMXIXIXIXv.Q.Q.Q.h.P.Q.Q.I.A._./.(.`.`.H.[ uX:Xx T XXoX",
"tX.X%X+XeXgX-Xz Y #X:XgX{.L U ' l.Q.A.t A.y.v.NXlXi   lXxXIXBXHXqXaX  i vXbXIXIXIXv.Q.Q.l.r.P.Q.z.j./.i.5.6.H.`.`.3.6X:Xx $X#X@X",
"'..X$X&X:XgX*Xg T U ;XfX[.L Y ' l.Q.y.i.Q.Q.D.0 vX. . vXcXIXBXHX7XV   i lXNXIXIXPXx.Q.Q.P.l.Q.P.G._.A.6.5.5.r.`.`.c.qX:Xz T P  X",
";X&X8X<XeXfXoXv T T ,XdX[.Y ^ 3.z.N.d.e E.Q.Q.m.9Xi 7XlXBXIXMXGXI I o aX( PXIXJXBXM.W.Q.Q.Q.Q.J.!.`.i.5.5.5.r.`.`.!.4.[.g $XL .X",
"iX+X&X=XtXyX=Xb ~ T <XuX[.U ) e.N.W.T.q.:.E.Q.Q.A.) 7XnXPXHX[ GXxXlXlXzXFXIXVXL.N.L.L.R.Q.Q.Q.D.!._.r.5.5.5.G.`.`.`.e.K v 8XH XX",
"iXb j L +X:X-XF ~ $X,XuX].N 2.z.N.U.N.W.t t E.Q.Q.S...PXFX:.K.v.KXxX .FXIXPX^.Q.W.Q.N.N.W.Q.Q.t./.`.A.6.5.r.`.`.`._.e. Xn ~ H XX",
"yXB Y #X&XsX-Xj $X&X,XuXn C e.L.L.K.0.A.L.w.t y.E.Q.K.c.q.W.Q.A.mXKXIXIXIXGXM.K.g.U.W.T.N.Q.k.F.`.`.).F.F.).`.`.`.A.[ ;XB ~ G .X",
"yXB U L OXiX;Xk &X:XtXuXx A t.U.N.T.w.4 K.Q.I.y.4 y.E.Q.D.K.Q.Q.K.x...X.[ c.T.E.e u.Q.Q.f.z.A.`.`.`.`.`.`.`.`.).e.r 2X;XJ ~ Y Y ",
"iXB T .X@X5X;Xk XX:XuXuXx C 7.Q.W.W.u.- : y.I.Q.W.u.q.g.E.Q.Q.Q.Q.Q.Q.Q.Y.S.w.@ w.U.R.L.f.j.).`.`.`.`.`.`.`.`.F.' 2X,X-XB H b k ",
"fX|.#X&XG [ x.' Z K  XW u i 7.Q.Q.Q.m.; ; = 4 q.I.Q.Q.E.Q.Q.Q.Q.Q.Q.S.q.7 < - , T.U.L.L.T.G.`.`.`.`.(.H.`.`._.i.Q &X,X:X.XU L  X",
"fX+X.X&XZ E.S.K.K.e nXIXIXv.e.Q.Q.Q.S.< O.O.- _ * 0 :.w.c.c.c.t 4 + = - O.O.= S.Q.Q.Q.Q.Y.F.`.`.`.`.i.5.!._.!.r H &XyXeXJ ~ XXXX",
"gXoX.X&X_ I._ u 0 ' IXIXIXJXJ.Q.Q.Q.K.< O.O.= BXIXMX= + X.NXBX* ; O.O.O.O.; t Q.Q.Q.Q.Q.l.H.`.`.`.).7.4 [ x.0.R N &XuXeXJ Q )  .",
"{.'..X;Xw D.R z a X.IXIXIXZXY.Q.Q.Q.E.: O.O.@ HXIXnX- = HXIXKX1 O.O.O.O.O.< A.Q.Q.Q.Q.Y.9.).!._.).[ ..KXFXmX& % & & a tXB W W ! ",
"tX=XY &Xw D.l z D s NXHXPXA.Q.Q.Q.Q.Q., O.O.= , 1 = ; + ` ` 1 = ; ; O.O.; e Q.Q.Q.Q.Q.k.!.i.5.0.v.FXIXIX0 0.y.A.A.D.q.l N R B oX",
"kXeX$XU w K.w % C A A Z _ t.Q.Q.Q.Q.Q.e o.O.O.O.o.O.o.+ X - o.= X X - o., I.Q.Q.Q.Q.Y.H.H.5.5.[ PXIXIXIXq e , * s 0 D.& x v  X;X",
"gXeX0X0 K.Q.Q.w.* E D ].l e.W.P.Y.Q.Q.y.- O.O.O.O.O.=     = o.X     X - g.Q.Q.P.Y.Q.I.!.r.5.5.e HXPXIXIXNXFX_ p J a m.r k N  X;X",
"pX:XD y.Q.Q.K.e & N :XtXg 0.l.r.h.Q.Q.I.= O.O.O.O.; X     = ; X       t E.Q.P.r.j.Q.P.H.e.5.5.5.x.v.X.bXbX..a B T D c.c.p N  X-X",
"uXoXi u.T.K.K.i.Z @XfXfXx 3.l.r.r.I.Q.Q.7 ; O.O.O.; X               # T.Q.Q.P.r.j.Q.l.H.e.5.5.6.!.).F.2.5X:XtX@X8XY 3.D.i b  X;X",
"uX|.U 4 i.A.u.D.Z 4XhXfXM y.Y.j.j.Q.Q.Q.w.- O.O.; - + O     .     # I.Q.I.P.Y.l.Y.Y.A.).F.5.5.i._._.u.| tXtXtXl ] ' q.K.s b  X;X",
"pXJ 8Xa Z 0 * 3 D 6XgXpXA l.Q.Q.Q.Q.Q.Q.K.4 ; - 1 <.1.<.1 <.1.` # A.Q.I.h.h.P.Q.Q.k.).`._.F.A.).`.!.[ 3XeXpX1Xr D.I.E.I.0 H &X>X",
"dX.X8X$XyXfX:X$XT 6XfXuX' z.Y.I.Q.Q.Q.Q.Q.S.@ 1 V.VXVXB.V.V.<.q K.Q.Q.P.r.r.D.Q.W.S.`.`.`.`.`.`.`.i.W OXtXfXR e D.Q.Q.Q.y.a #X&X",
"pX&X0X8XsXuX*X0X0X<XyX:XA l.D.h.Y.Q.Q.Q.W.R.D.:.q q ` ` q :.w.K.Q.Q.Q.P.r.h.P.Q.W.S.`.`.`.`.`.`.`.e.P  XtXfX@X0 A.K.I.K.u.u $X#X",
"tX|.G v ].].n P b n '.'.Z J.Q.D.Q.Q.Q.Q.Q.^.V.R.Q.W.K.I.W.C.C.W.Q.Q.Q.Q.l.P.Q.Q.E.j.`.`.).i./.`.).5.Q @XtXfX:Xu u.0.m.4 # D T #X",
"[.J H &XyXoXn b Y >X5XyXr W.Q.Q.Y.P.Y.Q.Q.Y.L.C.C.C.C.C.B.M.l.J.Y.W.Y.P.J.P.Q.Q.P.G.`.`.!.5.G.`.A.r #X@XtXfX-Xv l l p p U ~ U XX",
"yX&XU +X*X-X*X( #X=X5X6X0 k.l.g.8.9 w.9.9.9.w.*.8.8.8.7.c.ZXJXZXe.6.6.y.~.ZXi.g.9.A.`.`.!.6.!.!.0.Q .X=XtXfX-Xb XX5X-Xx U F T J ",
"dX&X9X+XwXrX{.$XoXeXuX;X$ x.y.n.LXGX....NXFX..2 >.>.2 X.bXKXGXjX* MXJXIXIXIXIXLXnXb.Z._.`.).`.u.Z L .X-XtXpX-Xb $X<X:Xz P J b B ",
"dX|.~ +XwXwX'.#XG A R  X$ KXIXIXIXIXIXKXBXNXPXbX2 2 nXIXBX..bXBXPXIXIXIXIXIXIXIXcXDXCXH.`.`.).3.N L .X-XeXuX-XG $X,XtXz v v d d ",
"dXB ~ .XwXrXc Y A K.I.0.O FXGXGXGXFXFXFXFXGXGX..>.+.bXBXBXFXBXBXBXBXBXBXBXBXBXMXAXDXDXb.F.`.G.3.B P .X-X:XuX,Xb %X<XeXz F U #X@X",
"yXB ~ .XeXeXc L _ K.t x.i.:.7 7 5 > =.;.7 7 5 < ,.>.= 7 8 8 &.;.=.&.&.&.&.*.;.5 ..AXDXDXCXc.r.t M Y .X=X:XtXyXF ~ <XtXx U T .XB ",
"5XM T .XtXwXc H Z v.& l + e m.4 &.=.7 p.. . X +.,.,.+.X X X + ;., X X X X @ a.5 $.q AXDXDXb.5.] B ~ #X=X-XwXsXF U >XyXv Y $X#X X",
"5XM 8X+XuX:Xx H W AXy l : 8 , y.4 ;.&.&.=.=.&.< ,.>.< =.;.;.;.a.;.=.=.=.*.=.s.> 6 6 q cXDXcXZ tX@XY J ].oX=X>XF H J |.g T $X.X X",
":XB 8X+X XM z P _ VXu l 7 &.=.4 4 a.a.7 ;.s.s.&.< < =.s.s.s.s.s.s.s.s.s.s.s.a.> > X : q cXxXN tXoXN g d d x B b J oX].z T 8X.XoX",
";XB ~ i . . % U { HXu l + @ 8 ;.s.s.s.s.5 8 &.&.5 7 *.=.=.=.;.;.;.;.;.;.-.8.=.6 $.:   @ #.# @X,X'.Y P XX+X XB G XXyXdX'.U ~ |.OX",
"-XJ ~ . _ X.. U W KXs >Xy # : 5 *.a.s.s.;.#.#.#.#.#.#.@.@.@.6 6 6 6 6 6 6 6 5 > 6 $.> + $.@ ;X:X'.P +X=X:X5Xn N @XtXsX].U T |.;X",
";XL ( * _ O   V R HX{ -Xg D O 6 5 : 8 a.p.%.%.%.%.%.%.%.%.%.%.%.%.%.%.%.%.%.%.%.5 > %.$.$.# :XtX].P >XwX5XuXn G &X5XyXB U U @XtX",
":XP L Z nXX.. $ o _ { oXx U K & 5 %.#.$.%.%.%.%.%.%.%.%.%.%.%.%.$.$.%.%.%.$.$.%.%.6 > #.$.& :XuX].Y >XeXtXpXc G &X5X5Xn U ( 2XiX",
"5XP $XQ X.nX*       . p x L ;X4Xu > 6 @.@.#.#.#.#.$.$.$.%.%.%.%.#.6 %.%.%.#.> %.%.%.#.> 5 % :XtXB U ;XeXtXiXc G &X5X5Xx Q /  .qX",
"B P #XsXR jXbXO       p n Y :XtXuXp $ $ % % % $ o o o o o o . . . : %.%.%.%.> + + @ @ @ X y :X,X'.L ;XeXtXpXx L #X5X5Xz Q | } | ",
"v H F +X>Xl _ _ O   . d n T &XiXuX'.H .X5XpXgXkX-XL H J =XwX:XB T & $.%.%.%.%.+ y D D j l ].:XtXn P :XtXtXdXn H &X5X5XM E /  . .",
"@XN N b B B s bXX.O i *Xx ~ $XdXpXc H P 5XpXfXkX:XL H XX=XwXtXB T p > %.%.%.> O J P U v OXOXtXyXM L @X5XtXfXB G ;X5X>XN E W / | ",
"2X~ $XsXfX:Xp Z  .s 1X*Xv ( 8XdXdXc L Y @XyXfXkX:X#XL b =XwXuX].U J $ > : @ O 4X;XG $ % N ;XtX6XN U J 3XuXgXOXL &X5X4Xx K l D K ",
"@X$X@XgXhX) a Y G  XtX{.n 8X%XiXpXc L Y |.yXhXkX:X$XL n =XwXuX[.Y |.v p V 4 q.a  Xp     $ 3XqX) l T J =XfXgX:XL &X5X5Xx P N Y ;X",
"XX( @XqX| W p H @X:XwX[.B T XX>XyXc L $X&X>XuXpX-X$XL |.=XwXfX|.Y  Xn l ~ C i.4 d y O &   & s a D T XX;X;X3X4XL @X3X4Xd U G #X:X",
" .| ) W ) ) l G &X:X:X'.M Y L L B d J L J oX-X-XoXT L B -XwXpX|.P  Xz g G D w K.* p <...O   . u g h g x n x K T XX;X3Xx T Y #X;X",
"W 4.4. .| K d l &X5X:X'.c v k k x z B Y #X4XhXkXuX$XJ B -XeXuX@XP 3Xx M Q Q ! t y.$ nX} } * * o l P XXtXyX3X2XT J OXOXv ~ T &X-X",
"/ /  .xX .) l h &XwXwX'.B L L 6XyXc N Y n 3XfXkXuX#XG ].;XtXtX&X#XyXB l E W  .A u.q.:.A D s _ o j 0X&XyX5X3X1XN x z x M ( 0X&X-X",
"W R K !  .| a l &XwXwX'.XX$XJ :XyXc N #XB OXtXgXyX#XL ].-XtXtX2X2XdX Xh E / | } _ A.A.A K u . y x #X$X,XyXsX2XK B M d K 0X0X0X=X",
"R H &XtXB W a H &XwXtX'.J 8X&X3XyXd N #XB =XtXfX>XY J ].;XpX5X2X&XhX@Xh W E W / E & * p d z c x d XX#X:XyXdX2Xb M ].d P ( #X2X5X",
"k T $XyXiX].a P &X;X:Xn v 8X&X5XyXd N #X|.oX5XsX>XY B ].;XyX;X8XL sX@Xf E E R l B M N G ].OX X Xg N #X>XyXdXY U  X3Xd M b g M M ",
"B ( T 5XyX[.d T G G XXc x 8X#X5X5Xd N #XB [.:XiX6X~ L n ].[.J ( 2X4X Xp D E K 3X5XJ ~ T @X5X5X4XM k XX>XyXsXP U XX1Xd P U P K 1X",
"G ~ H &X5X].x U H J  X].x Q #X5X:Xd N P M  XsXhX&Xj h x c '.B G j v M d E U yX4X4XN ^ U J 5XyXiXB d #X4XyXdXP P XX1Xx G ( P XX3X",
"L T Y &X@XM k ~ ~ U 6X,Xn T &X5X:Xd J Y G @X6X6Xn G N B OXyX=XL T G v a T 0XsX4X4XN ( U L 6XyXdX|.d XX4XyXdXY P XX1XB d T H P  X"
};
