/* XPM */
static char *_f54a703d9f24366d4ae405277c49fb3BTkOpeYaBmyulyrD[] = {
/* columns rows colors chars-per-pixel */
"64 64 246 2 ",
"   c #000102",
".  c #070707",
"X  c #101012",
"o  c #2E1709",
"O  c #352B0F",
"+  c #0E1A25",
"@  c #0B1B36",
"#  c #152733",
"$  c #2E2E2F",
"%  c #4A2F14",
"&  c #59381D",
"*  c #63240E",
"=  c #4C3A2E",
"-  c #623E21",
";  c #3B4A34",
":  c #544B02",
">  c #524C0A",
",  c #675A04",
"<  c #6B4A17",
"1  c #776B03",
"2  c #786F0C",
"3  c #666B18",
"4  c #6B721C",
"5  c #564E30",
"6  c #6C4525",
"7  c #774B26",
"8  c #7D502B",
"9  c #5A6D37",
"0  c #747925",
"q  c #676F31",
"w  c #041C43",
"e  c #102950",
"r  c #18395C",
"t  c #29374A",
"y  c #051E6B",
"u  c #092869",
"i  c #0A2B6C",
"p  c #112E6F",
"a  c #0B376A",
"s  c #0C326D",
"d  c #153868",
"f  c #072874",
"g  c #0B2C73",
"h  c #0A2D7B",
"j  c #063476",
"k  c #0C3374",
"l  c #0E3C73",
"z  c #0D347B",
"x  c #0E3A7B",
"c  c #113473",
"v  c #123C74",
"b  c #11347B",
"n  c #123C7C",
"m  c #1A3D7B",
"M  c #154557",
"N  c #29475A",
"B  c #304B52",
"V  c #395A5A",
"C  c #3B625C",
"Z  c #194469",
"A  c #184E6D",
"S  c #0E4476",
"D  c #134374",
"F  c #154A75",
"G  c #1A4974",
"H  c #14447B",
"J  c #1A447C",
"K  c #154B7B",
"L  c #1A4C7B",
"P  c #195776",
"I  c #16537B",
"U  c #1B547C",
"Y  c #1C5B7C",
"T  c #264864",
"R  c #354B6A",
"E  c #2A5568",
"W  c #365867",
"Q  c #244979",
"!  c #265776",
"~  c #345C78",
"^  c #1D637C",
"/  c #1E6A7C",
"(  c #3C6267",
")  c #22657A",
"_  c #3A6376",
"`  c #4B564D",
"'  c #455756",
"]  c #4D694F",
"[  c #6E6E51",
"{  c #495669",
"}  c #476868",
"|  c #466A74",
" . c #4A7378",
".. c #557173",
"X. c #656C71",
"o. c #797879",
"O. c #921803",
"+. c #D82000",
"@. c #877803",
"#. c #8D7C11",
"$. c #885429",
"%. c #905C31",
"&. c #9C6230",
"*. c #AE6F3D",
"=. c #F17200",
"-. c #ED6413",
";. c #837D4E",
":. c #BE7B44",
">. c #906763",
",. c #788430",
"<. c #79884B",
"1. c #69867B",
"2. c #988800",
"3. c #8F8A14",
"4. c #9B9719",
"5. c #A99903",
"6. c #A5970D",
"7. c #B7A807",
"8. c #B1A910",
"9. c #8C9031",
"0. c #A59820",
"q. c #9BA232",
"w. c #ABAC2A",
"e. c #F58B00",
"r. c #F69700",
"t. c #C1AD00",
"y. c #CAB705",
"u. c #D3BC03",
"i. c #F6B100",
"p. c #DAC603",
"a. c #DECC11",
"s. c #E3CD01",
"d. c #E3CD0C",
"f. c #FBC900",
"g. c #E6D103",
"h. c #EBD401",
"j. c #EBD505",
"k. c #F9D702",
"l. c #F4DB00",
"z. c #FADD00",
"x. c #F5DC0C",
"c. c #ECD419",
"v. c #F1D912",
"b. c #FEE400",
"n. c #DFC92F",
"m. c #D9C438",
"M. c #E3CC27",
"N. c #8F9347",
"B. c #A39D5E",
"V. c #9AA745",
"C. c #93A553",
"Z. c #A4AC44",
"A. c #AAB54B",
"S. c #ABB751",
"D. c #B4BB53",
"F. c #908C6C",
"G. c #AEA96E",
"H. c #CFBB48",
"J. c #CAB653",
"K. c #C5B15C",
"L. c #DBA36A",
"P. c #B8C14B",
"I. c #BAC759",
"U. c #C1CF5F",
"Y. c #CBD966",
"T. c #CBD967",
"R. c #D4E36D",
"E. c #0D3686",
"W. c #0F368C",
"Q. c #133C84",
"!. c #133B88",
"~. c #0F408A",
"^. c #154483",
"/. c #194485",
"(. c #154C84",
"). c #1A4C84",
"_. c #15448C",
"`. c #1A458B",
"'. c #164A8B",
"]. c #1A4B8C",
"[. c #1B5483",
"{. c #1C5C83",
"}. c #185885",
"|. c #1C538B",
" X c #164593",
".X c #194692",
"XX c #1B4B94",
"oX c #174898",
"OX c #1C4C9B",
"+X c #1D5293",
"@X c #1F5995",
"#X c #1E539B",
"$X c #214B88",
"%X c #245888",
"&X c #204E98",
"*X c #225494",
"=X c #22549C",
"-X c #235B9D",
";X c #285B99",
":X c #1D6382",
">X c #1E6586",
",X c #196E8F",
"<X c #216683",
"1X c #2D6990",
"2X c #164AA2",
"3X c #1C4EA2",
"4X c #1E52A3",
"5X c #1D51A9",
"6X c #214FA0",
"7X c #2254A3",
"8X c #255AA4",
"9X c #2659A7",
"0X c #255BAB",
"qX c #295DAB",
"wX c #285EB1",
"eX c #2963A8",
"rX c #2B63AD",
"tX c #346AA8",
"yX c #2B63B3",
"uX c #2C67B8",
"iX c #3169B7",
"pX c #547688",
"aX c #6B7B87",
"sX c #2F6DC2",
"dX c #22849E",
"fX c #148AAB",
"gX c #6E868D",
"hX c #858788",
"jX c #959693",
"kX c #AFAD92",
"lX c #A8A8A7",
"zX c #BDBBA6",
"xX c #B7B8B7",
"cX c #E7A288",
"vX c #C8C999",
"bX c #CDCEB3",
"nX c #B7CFD4",
"mX c #C7C7C6",
"MX c #D5D4CB",
"NX c #D7D7D7",
"BX c #EFE2DE",
"VX c #CBEFF8",
"CX c #E8E9E9",
"ZX c #E6F8FD",
"AX c #F4F5F5",
"SX c #FEFEFE",
/* pixels */
"*X|.K )./.9X#XI j Q. XXXx H E.~._.oXXX^.v g `.=XrX{.Y k z n XXW.j K D K I /./.].*Xx a U _.Q..X#X-Xf U P (._.7X9Xk Z V } } } V E ",
"~ ! I |.OXqX#XF l /.oX#Xz F H ].OXOX.Xx F k ].9XyX|.Y j z n oXW.j I H K U `._.].=X^.i U (.Q.oX7X7Xj P P ^._.7XqXk d W ' ' C W W ",
"E D }.#X#XqXOXS D `.OX7XQ.F H '.oXOX_.j Y x XX4XyX[.I g g Q.OXW.s H Q.K Y ^.].XX-X`.u Y (._.OX7X7Xj P Y n !.#X0XQ.d V V V } r L ",
"Q.U {.#X4X7X.XD H `.4X7XQ.F ^.+X$X' 9 N P H =X;X..q ] d i h !.h a P (.^.Y L '.XX-X/.a U ). X4X0X#Xj P ^ [.#X7XqX^.N C W N Z P K ",
"9XU ^ 4X4X4XXXl H ].0X0XQ.F (.*X[ 9.g.y.0 5 ] 4.g.l.g.3.d !./.N ; ] ! _.Y L /.OX;X].a Y (. X7X0XOXz x j k z z _.n N ( E d ^ ) {.",
"9X[.^ +XeX7XXXa L XX0X0XE.F K ~ S.Z.p.b.b.l.l.x.c.x.b.z.6.,.4.u.l.g.3.' E ! W q 4.0 M P Q Q %X9XOXh K [.`.oX&XXXk T T u g U Y x ",
"7XL ^ |.eX7XXXs U XXrXqXh F H } I.T.w.l.b.b.b.H.K.H.x.b.b.b.b.b.b.b.b.p.8.8.p.l.b.h.6.,.4.8.8.9.' d E ) !.W.4XrXi d l E.g F Y ].",
"7XH / '.eX9XoXi U `.yXrXg T 9 9.T.R.A.g.b.b.v.K.K.K.c.b.b.b.b.b.b.b.b.b.b.b.b.b.b.b.b.b.b.b.b.b.p.7.6.V E.E.!.9Xu U +XoXQ./ Y ].",
";X^.^ (.eX0X Xu U ^.yXeXg ] T.I.V.D.D.p.b.b.c.K.K.K.c.b.b.b.b.b.b.b.b.b.b.b.b.b.b.b.b.b.b.b.b.b.b.b.4.! oXoX9X=Xk :X#XXXk ^ [._.",
"| J :X(.eX0X Xu [._.iXrXb N.T.0 3 4 V.s.b.b.x.K.K.K.v.b.b.b.b.b.b.b.b.b.b.b.b.b.b.b.b.b.b.b.b.b.b.l.] '.oX3XwXXXv >X#XXXg Y (._.",
"| E :X(.0XrXXXf H _.=X;X' S.Z.3 3 4 q.j.b.b.b.n.J.m.b.b.b.b.b.s.b.b.b.b.b.b.b.b.h.b.b.b.b.b.b.x.M.j.] '.oX3XwX.XD @X7XOXg Y (._.",
"$X! :X'.0XyXoXf l H ).] D.T.q.3 3 0 D.y.b.b.b.b.v.b.b.b.l.b.b.1 b.b.5.b.b.h.b.b.2.h.l.p.b.b.b.M.K.M.,.).oX7X0X`.H @X7XOXi Y [.`.",
"9XH >X'.0XuXoXf I >X%XC.R.R.A.4 4 I.R.9.l.b.b.b.b.b.b.h.@.h.s., y.u.: b.b.1 p.p.@.y.y.2.b.b.b.n.J.x.8.L oX0X0X_.K -X9X&Xg Y )._.",
"7X(.{.'.4XuXoXi U [.$X<.T.R.R.I.I.R.R.T.8.l.b.M.H.v.b.l.2 F.lXmXxXjX;.t.l.#.F.lXmXxXjX9.s.b.b.b.x.b.4.).oX7X0X_.K +X9X#Xg {.[.'.",
"E.(.{.|.OXuX Xs Y I XX1X9.R.R.R.R.R.R.R.P.p.b.m.K.M.b.#.mXSXSXSXSXSXAXkX3 MXSXSXSXSXSXCX[ s.b.b.b.l.q '.oX4X0XQ.K (.7XOXg {.)./.",
"XX|.>X@X4XyX_.k Y Y #XrX] T.R.R.R.R.R.R.D.p.b.v.m.x.5.xXSXSXSXSXSXSXSXSXhXNXSXSXSXSXSXSXCXq.b.b.b.p.V `.oX4XwXQ.K |.XX!.i {.K (.",
"9X(.|..X7X9X.Xl ^ Y #XqXq T.R.R.R.R.R.R.w.g.b.b.b.h.B.SXSXSXSXSXCXgXpXxXCXo.SXCXgXaXNXSXSXkXh.b.b.6.E _.OX0X0X^.F [.].!.k :XF ).",
"9Xx a K '.oXoXS ^ {.#X;X9.R.R.R.R.R.R.R.w.l.b.b.b.u.bXSXSXSXSXSX..fXfX1XCXjXCX' fXfX| CXSXbXd.b.b.4.A '.OX0X0X_.F (.7X_.z ^ D ).",
"9Xn U [.+XeXoXl {.|.#X0XN S.R.R.R.R.R.R.w.l.b.b.b.y.MXSXSXSXSXSXE M   ,XNXxXMXM M # dXNXSXmXa.b.b.y.V `.OX7X0XQ.H '.#XXXn ^ D (.",
"9Xn P K `.0XXXa |.OX4X0Xg ` T.Z.,.T.R.R.A.p.b.b.b.y.MXSXSXSXSXSX..fX,X1XCXxXNX} fXfX| AXSXxXd.b.b.l.] `.oX5XwXQ.F |.#XOXH ^ U U ",
"qXn Y (.].rX7Xs ).OX9X0Xg r V.4 3 I.R.R.T.q.l.z.i.=.-.L.BXSXSXSXCXgXpXxXSXhXAXAXjXhXNXMXzX;.7.b.b.l.9 '.oX4X0XE.L |.#XoXn F l s ",
"yX^.[.|.+XrXrXh I |.wXyXf r V.9.9.T.R.R.R.S.p.r.=.i.z.r.cXSXSXSXSXSXSXSXmXlXSXSXCXlX[ 0.y.y., h.b.p.V _.OX7X0XQ.K |.#XOX(.Y K /.",
"yX'.(.|.|.iX0Xh H '.yXyXf B I.R.R.R.R.R.R.V.u.=.z.l.s.f.cXSXSXSXSXSXSXBXq F.MXF.> 2.z.b.b.h.: l.b.3.A '.OX0X0XQ.H |.9X4XK ^ ).).",
"yX_.(.|.#XrX4Xf G Q 7X0Xg ` T.R.R.R.R.R.T.q.z.e.k.p., i.B.MXSXSXSXAXxXN.g.5.5.y.l.b.b.l.7.@.t.b.b.9 K '.OX7X0XQ.v |.0X4XH ! ~  .",
"!.E.(.XX7XiX2Xf Z _ ! ].%X] U.R.R.R.R.R.T.w.b.z.b.b.7.2.l.5.q [ [ 0 u.z.b.b.b.l.y.2.: : 5.l.b.b.b.q K  XoX5XyXE.c |.qX7Xm W W E ",
"7X XU |.#XuX2Xf Z N C } } } ,.T.R.T.9.4 S.w.b.b.b.b.b.1 y.b.b.b.b.b.b.b.b.b.h.2.2.: u.z.b.b.b.b.b.8.A _. X4XrXE.v [.9XOXv Z m _.",
"sX4X{.{.].yX3Xh T V ( W W E E A.R.q.3 3 V.I.7.b.b.b.b.h.1 2.z.b.b.b.b.b.b.b.b.b.b.1 t.b.b.b.b.b.b.8.Z x  XoX#Xh v S .X_.g k /. X",
"uX4X<XY +XuX4Xh T E Z Q.c Z C A.R.0 3 3 S.T.3.b.b.b.b.b.l.@., t.h.l.l.l.l.h.h.s.u.2.: z.b.b.b.b.l.4 n z z E.Q.g H ^.].Q.k v /. X",
"wXOX<X{.#XuX4Xf d v OX7Xg D ] U.R.,.3 9.T.T.8.b.b.b.v.b.b.b.s.7.5.9.G.G.3 2 F.kX[ 5.s.b.v.v.b.b.6.! ^.#X9X7X7XQ.U >X#X#Xk v /. X",
"0X_.<X[.XXiXrXy F ].yXyXg F ] I.R.T.A.T.R.Z.p.b.b.x.J.n.b.b.b.b.s.F.SXSX5 4.MXSXG.p.b.c.K.K.v.g.` [.).#X9X7X0X'.<X@X9X4Xj l /.XX",
"0X^.>X[.-XuX0Xy K *XiXyXh U ) C.R.T.R.R.R.q.b.b.b.x.m.c.b.b.b.b.p.F.mXmX5 8.jXlXN.s.z.H.K.K.M.s.B (..X7X7X7X7X^.[.-XyX3Xv l /..X",
"qXH :X[.-XyXOXk I ;XuXyXz Y :X] S.9.T.R.T.w.b.b.b.b.b.b.b.b.b.b.l.7.3.#.7.h.y.y.p.k.x.H.K.K.v.h.` ^.'.OX4XwX4Xn |.9XyX XH K [.+X",
"wX(.{.{.9XyXOX{.Y ;XyX0Xh D a B D.Z.T.R.T.w.b.b.b.b.b.c.c.b.b.f.r.z.b.b.k.f.f.z.f.=.b.n.K.m.b.s.B J H `.7XyXOXx |.9XyXW.K K [.|.",
"qX[.<X:XeX9X X<X<X@X9XOXg Y / ( I.S.[ <.T.q.l.b.b.b.n.K.K.v.b.b.r.e.z.k.=.i.r.e.e.i.b.b.c.x.b.0.d K K /.7XyXOXk [.7XwXh I U {.[.",
"7X^.D k Q.Q.z ).S z W.E.i ^ {.W N.` AXo.N.I.7.b.b.v.J.K.K.c.b.b.b.f.=.-.i.b.b.b.b.b.b.x.x.b.g.] Q.K Y '.7XyXOXk [.7X7Xg Y Y Y [.",
"!.H F |.9X_.z l U +X-X9Xg Y (.$X; CXZXmXq R.3.b.b.x.J.K.H.z.b.b.b.b.b.b.b.b.b.b.b.b.b.H.K.x.7._ H I [.].7XyXoXc [.7X3Xg ^ ^ P ).",
"9X@XP '. XoX X) [..X7X9Xi Y (..X{ ZXZXAX5 R.4.b.b.b.v.M.v.b.b.b.b.b.b.b.b.b.b.b.b.b.b.M.m.b.7.T n L (..X7XyXoXl [.-X Xg I S Y H ",
"rX|.>X'.3X5XW.{.'.7X0XOXi Y [./.X.AXZXSX9 T.8.b.h.g.g.l.b.b.z.h.a.a.h.l.b.h.g.g.h.b.l.g.d.h.y.B E.K (.oX7XwXoXl {.#XOXg L H l n ",
"rX^.^ '.3X2XE.[.(.+X7XOXi U {.].t mXAXmX[ B.9.w.U.vXvXD.8.8.Z.vXbXbXq #.6.0 vXvXG.#.D.vXbXG.kXX.b K (. X4X0XoXD {.#X7Xg k k u u ",
"rXn ^ (.3X5Xh U I |.=X9Xi U {..XR O o ' VXVXnXhXSXSXSXSXAXMX{ lXSXxX` O.O.$ NXNX` jXSXSXSXjXlX{ k L (. XOX0X#Xl {.#X4Xf S I [.].",
"9Xn ^ (.4X4Xh K (.|.#X-Xu Y {..Xt : 3.xXVXVXnXjXSXSXSXSXSXSXAXxX>.hXSX>.5 mXhXjXCXSXSXSXSXaXv &Xb U (. XOX7X9XS ^ @X7Xg I Y (.x ",
"-Xb Y (.7X3Xh F (.+X#XXXu U [..X$ : @.5 = ' X.X.MXNXNXNXNXmXmXxXlXlXxXo.o.MXmXNXMXmXmXmXmX{ XX6Xn ^ [..XOX3XeXS P +X9Xk U {.[./.",
"#Xb :X(.0XOXg F ).+X7XoXi U [.XX$ : 1 . O $.7 % $.- % % - 7 6 & & - - * o & & & 7 7 6 7 %.t OX7X].I H Q._..X+XS F H /.i Y {.(./.",
"OXn :XXXrXoXg L (.'.7X=Xs U (.XX$ , 1 % % %.$.6 :.% . . - :.$.. . . . +.+.. . . 7 & X X *.e OX7X_.v i u f g n l H _.Q.g Y :X(._.",
"XXn ^ #XuX Xg U [.].9X-Xa Y '.OX$ : @.$.&.&.$.7 :.:.*.*.*.:.*.%.%.$.o +.+.% %.%.*.*.&.%.$.d 4X#XQ.U L ).'./.n D ).9XrXQ.U ^ ^._.",
"oXH ^ -XuXW.s ^ [.|.qX+Xu P XX#XJ : @.7 &.&.$.8 :.:.:.:.:.:.:.:.:.:.6 O.* &.:.:.:.:.:.:.6 m 7XOXE.L (. XXX=Xz v ].7XeXQ.P Y ^.XX",
"XXK <X-XyXE.c ) %X@XrXoXi U ].7Xe t.h., o 6 $.$.:.:.:.:.:.:.:.:.:.:.:.% $.:.:.:.:.:.:.:.- ].7X7XQ.L +X3X=X0Xz D |.=X9Xb K Y '.4X",
"OXL K 1XrXW.D Y |.*X*X Xf I ].$X4 b.b.p.e c e O & & - 6 6 5 5 5 5 - 6 & & - & = = < < , + 7X7X0XQ.U +X4X7XqXh D |.=X-Xz I ) %XqX",
"=XL {.-X9XOXz a l l b g g K XXQ 7.b.b.b.> /.0X= $.$.$.$.& n /.c A d $ 6 $.$.% ].u 7.5.h.$ 4X3X7Xn I XX4X7XqXh D |.=X-Xg ! (  .pX",
"n L [.eXiX3Xz Y |.|.+X Xx U OXW p.b.b.1 5.> wX$X# O % + e OXOXn Y /.`.# : @ /.qXd y.5.p.1 ^.OXOXE.K OX4X7XqXg K [.=X=Xg ! | } } ",
"k D S '.+X!.n I _.oXrXOXz Y |.V 5.s.7.: t B yXsX X2.2 H `.OXOXn ! /./.5 1 L #X9XB u.h.2.p.B OX4Xz L OX7X7XrXz F |.=X=Xb E ( ....",
"].D l x n Q.s [..X7XiXoXg ^ {.W , y.2.1 *XqXyXsXd y.5 )..X3X7Xn Y /./.2 5 [.OX-X2 @.p.2.1 0 OX9Xb K '.=X7XyXn H XX=X+Xc E W ( | ",
"%X^ {.eXrXXXi [.XX7XwX Xk ) {.~ % 2.2.2.d 9XyXuX# 4.B x .X3X0XQ.U /.d ' M {.OX).1 5.2.2.r d =X;Xm P H &X0XuX`.K |.=X*Xg G d G Q ",
"].{.|.yXtX_ r U ].3X7X!.z :X{.;XT O > $ v 9XiXqX{ aXd z  X3X0XQ.U /.@ >.E ^ @X;X> t.1 5 `.&X1X~ d Y H .XyXuXXXK |.=X=Xg L v U XX",
").) (.1X| W e F ].OX3XW.n Y ).+X9Xg Z Y [.XX9XJ cX>.d ^. X3XyX^.U /.t xX) ^ U J u w M Z $X1XT Z Z Y ).XXXX&X*XK ].&X*Xu U D [.OX",
" . ._ W _ _ d D |.OXOXE.b I K K n f H K H _. XR AXX.D n  X3XwX^.L m o.xXZ F L )./.c ) ~ | W T d i i i g b g J Y ).XX&Xg Y I [.XX",
"W 1.1...| Q u d |.3X3XE.h k s s g u n U [.=XqXpXSXW H b  X4X0X'.L d xXhX+ ! Z d $Xv _  .| d E.`.J L ).7X9X$X%XY J `.`.g ^ Y |. X",
"( ( ..gX..~ d p |.3X3XE.n K K -X9Xh v U x /.. X.mXX e e e m 7X|.G X $ X   . + X # }  .W G &X=X=X).<X|.9X-X*X$Xl g g g c ) <X|.oX",
"W T J Q ..} r d |.3X3XE.).{.H OX9Xh v [.n d   X X   . X X.. p %XU @         X.; + W ! ) J /.`./.z [.{.#X9XeX%XJ m b f J <X<X<X X",
"T D |.7Xm W r D |.3X4XE.H :X|.&X9Xf v [.n Q.          X o.. @ %X|.Q .   .       @ d D e y f h g u ).[.XX9XrX%Xl b Q.u L ) [.%X=X",
"s Y {.9X9XQ.r L [.XXOXz k :X|.-X9Xu v [.^._.e X . X         d :XK eXc e N # # w b p D D Q.`././.i v [.+X9XrXU U /.$Xu c l i c b ",
"v ) Y =X0X!.u Y D H ).h i ^ [.-X=Xy v [.n Q.XX=X%XP @ X @ p H ^ %X*X/.u Z E J *X=XD ) Y ].#X-X*Xc s ).+X9XeXL U ).$Xu L P G J $X",
"D ^ F |.-XQ.g P F H /.Q.g ! [.-XOXu v L b /.eXtX|.a i g h E.n D a b b u E A -X*X*Xv / Y H =X7X9Xn u [.*X9XeXL L ).$Xg J ) L ).&X",
"K Y U |.'.b s ^ ^ I -X#Xz Y |.=XXXu H U H ].-X-Xz D v n `.9X.XK Y K k d ! <XeX*X*Xv ) P K =X9XrX^.u ).*X9XrXU L ).$Xn u Y G L /."
};
