/* XPM */
static char *de2a1fc909794f7188b501858c62d205BrobgfX86egFv8FI[] = {
/* columns rows colors chars-per-pixel */
"64 64 256 2 ",
"   c #010002",
".  c #080809",
"X  c #160904",
"o  c #060D16",
"O  c #1B1A18",
"+  c #301609",
"@  c #38260A",
"#  c #322D11",
"$  c #081626",
"%  c #0C1932",
"&  c #152635",
"*  c #2F3332",
"=  c #4C1606",
"-  c #671803",
";  c #771903",
":  c #462B06",
">  c #5A3706",
",  c #4D3413",
"<  c #653A04",
"1  c #6E2815",
"2  c #4E2F28",
"3  c #6F352A",
"4  c #3C4A39",
"5  c #514816",
"6  c #69440B",
"7  c #794804",
"8  c #694912",
"9  c #7A5413",
"0  c #737315",
"q  c #4F5431",
"w  c #655B26",
"e  c #75533A",
"r  c #586839",
"t  c #676E2F",
"y  c #77752A",
"u  c #0F2E51",
"i  c #182E55",
"p  c #15355B",
"a  c #263A4E",
"s  c #071E69",
"d  c #092769",
"f  c #0B2B6C",
"g  c #122E6B",
"h  c #0B3769",
"j  c #0C326D",
"k  c #163969",
"l  c #072974",
"z  c #0B2C73",
"x  c #0A2D7B",
"c  c #0C3374",
"v  c #0C3976",
"b  c #0D337C",
"n  c #123472",
"m  c #123C73",
"M  c #143779",
"N  c #123C7C",
"B  c #12455B",
"V  c #28475A",
"C  c #344B52",
"Z  c #3A585B",
"A  c #3D635A",
"S  c #174669",
"D  c #0E4974",
"F  c #134375",
"G  c #144A75",
"H  c #14447B",
"J  c #1A4678",
"K  c #154B7B",
"L  c #1A4D7B",
"P  c #185678",
"I  c #1B547C",
"U  c #1C5B7C",
"Y  c #274867",
"T  c #2B5568",
"R  c #365867",
"E  c #255876",
"W  c #305275",
"Q  c #1D637C",
"!  c #1E6A7A",
"~  c #3C6268",
"^  c #21647C",
"/  c #366573",
"(  c #484D4D",
")  c #70534D",
"_  c #566A4D",
"`  c #46665A",
"'  c #70784C",
"]  c #415669",
"[  c #496A6A",
"{  c #476874",
"}  c #517375",
"|  c #6F7069",
" . c #767777",
".. c #841C03",
"X. c #881D03",
"o. c #A13220",
"O. c #824E04",
"+. c #8B5304",
"@. c #955905",
"#. c #9A5C05",
"$. c #875D15",
"%. c #906A15",
"&. c #976818",
"*. c #A97116",
"=. c #A9741A",
"-. c #837B2A",
";. c #857B35",
":. c #D74229",
">. c #EB472D",
",. c #9F7361",
"<. c #7A8635",
"1. c #6B834C",
"2. c #6B8775",
"3. c #919406",
"4. c #969709",
"5. c #8D8F14",
"6. c #AC9217",
"7. c #9DA016",
"8. c #AFAB1A",
"9. c #8B872D",
"0. c #91902E",
"q. c #9A9434",
"w. c #A1952E",
"e. c #A49D38",
"r. c #A9A926",
"t. c #AABB26",
"y. c #ACA838",
"u. c #B3AE33",
"i. c #B8B53A",
"p. c #C4861E",
"a. c #CD8E21",
"s. c #D09022",
"d. c #C39439",
"f. c #E2913D",
"g. c #C3BB2B",
"h. c #B5C42B",
"j. c #BECA30",
"k. c #CBC42D",
"l. c #C4C834",
"z. c #CFCF38",
"x. c #D7D73B",
"c. c #DCD53B",
"v. c #E3DB3F",
"b. c #8E8E4F",
"n. c #B4B148",
"m. c #8D8C6F",
"M. c #9DA864",
"N. c #C5BD41",
"B. c #D4B250",
"V. c #EBB345",
"C. c #CF976A",
"Z. c #E99773",
"A. c #F3AF67",
"S. c #BEC144",
"D. c #CAC646",
"F. c #D4CC46",
"G. c #DDD746",
"H. c #CACC54",
"J. c #CFD157",
"K. c #D3D459",
"L. c #F1CE4B",
"P. c #E5DC45",
"I. c #E4DB4B",
"U. c #E9E446",
"Y. c #ECE44C",
"T. c #F7E74F",
"R. c #F4EC4D",
"E. c #EFE150",
"W. c #F5EB51",
"Q. c #FAED52",
"!. c #FDF353",
"~. c #D7DA65",
"^. c #CDCB7B",
"/. c #DEE170",
"(. c #E2E573",
"). c #E5E877",
"_. c #E4E778",
"`. c #E7EA79",
"'. c #E8EB7A",
"]. c #0D3686",
"[. c #0F368C",
"{. c #133B83",
"}. c #133B89",
"|. c #0F408A",
" X c #154484",
".X c #1A4585",
"XX c #154C84",
"oX c #1A4C84",
"OX c #15448C",
"+X c #1A448B",
"@X c #164A8A",
"#X c #1A4B8C",
"$X c #1B5483",
"%X c #1C5C83",
"&X c #185885",
"*X c #1C538B",
"=X c #164593",
"-X c #184797",
";X c #1B4B94",
":X c #1C4D9B",
">X c #1D5293",
",X c #1F5995",
"<X c #1E539B",
"1X c #214B87",
"2X c #235787",
"3X c #315C87",
"4X c #204E97",
"5X c #235493",
"6X c #22549C",
"7X c #265B9A",
"8X c #1D6382",
"9X c #1F6A83",
"0X c #087090",
"qX c #226683",
"wX c #2F6790",
"eX c #1C4EA2",
"rX c #1E52A3",
"tX c #1D51AA",
"yX c #2255A3",
"uX c #255AA4",
"iX c #275AA9",
"pX c #255CAB",
"aX c #285EB1",
"sX c #007BA2",
"dX c #2963A8",
"fX c #2B63AC",
"gX c #3369AF",
"hX c #2B63B3",
"jX c #2C67B8",
"kX c #617884",
"lX c #306CC1",
"zX c #2F849F",
"xX c #058AB4",
"cX c #6D8E99",
"vX c #009ED0",
"bX c #7FADC0",
"nX c #898886",
"mX c #959596",
"MX c #92A4A0",
"NX c #A9A8A7",
"BX c #B0B4B2",
"VX c #B9B9B9",
"CX c #E3A691",
"ZX c #9CC29D",
"AX c #D7D6AD",
"SX c #93B8D0",
"DX c #8AC2DB",
"FX c #9CDAF3",
"GX c #C9C9C9",
"HX c #CBD1D4",
"JX c #D9D9D8",
"KX c #EBE5DD",
"LX c #E8E8E8",
"PX c #F1F2EC",
"IX c #F5F4F4",
"UX c #FEFEFE",
/* pixels */
"5X*XK oX+XuX<XP c {.=X>Xb H ].|.OX-X;X Xm l OX6XfX%XU c b N -X[.v L F K K .X+X#X5Xb h I OX}.;X<X6Xl I P XXOXrXuXc S Z ` ` [ Z T ",
"W E K *X:XiX<XD v +X-X6Xb G H #X:X:X;Xv G c #XuXhX*XP c b {.-X[.v I H K I OXOX#X6X Xf I @X].-XyXyXc P P  XOXrXpXc k R ` ` A R W ",
"T S &X<X<XiX<XD F +X:XyX{.G K @X-X:XOXc P v ;XyXhX$XP l z {.-X[.j K }.H P  X#X;X7XOXf P @XOX:XyXyXc P U N }.<XpX{.k Z Z Z [ p L ",
"{.I %X<XrXyX;XF H +XrXyX{.G  X>X:X:XOXc P K 6XpXfXXXK j f x }.x h P XX XP L @X;X7X+Xh I oX=XrXpX<Xc P Q $X<XyXiX XV A R V S P K ",
"uXI Q rXrXrX;Xm H #XwX[ Z T E ` _ _ Z C r t <.' { E T C q r ( Y k / ~ _ t _ R 3XwXW C A 2X=XyXpX:Xb v c c c b OXN V ~ T k Q ^ %X",
"uX$XQ >XdXyX;Xh L 2X5.k.c.k.k.c.R.U.k.g.c.R.Q.c.t.8.g.x.U.Q.U.k.8.8.k.P.Y.R.g.8.8.8.k.c.g._ 6XaX:Xx K $X+X-X4X;Xc Y Y d z I U v ",
"yXL Q *XdXyX;Xj I t 8.U.!.!.!.U.x.R.!.!.!.!.!.W.G.!.0.!.G.I.!.!.!.D.D.D.9.!.q.!.!.!.!.R.!.z.[ fX<Xl I 8X}.[.rXfXf k m ].l G U #X",
"yXH ! @XdXpX-Xf T 5.J.z.!.!.!.h.t.h.R.!.!.!.!.Y.5 R.w y.y.i.!.!.!.G.5 -.* y w !.!.!.R.h.Y.P.<.hX<Xl L @X].].[.uXd I >X-X{.! U #X",
"7X XQ XXdXpX=Xd ` y.(.D.c.!.!.z.t.t.z.!.!.!.!.G.' NXGXGXmXb.D.!.W.n.NXLXUXIXVXM.F.!.W.l.P.v.9.hXrXl K oX-X-XiX6Xc 8X<X;Xc Q $XOX",
"{ J 8XXXdXpX=Xd 1.~.`.).H.c.!.Y.h.t.j.Q.!.!.Y.M.PXUXUXUXUXLXmXD.K.BXUXUXUXUXUXPXmXI.!.R.!.R.5.hX<Xl F @X-XeXaX;Xm 8X<X;Xz U XXOX",
"{ W 8XXXdXfX;XV n.).`.`.).z.!.!.U.l.x.!.!.!.n.GXUXUXUXPXHXJXIXnX;.PXUXUXJXHXLXUXLXM.W.!.!.!.c.| 6Xl F @X-XeXaX=XF ,XyX:Xz U XXOX",
"1XE 8X@XdXhX3Xw.(.`.'.`.).F.!.!.!.!.!.!.!.!.b.UXUXUXIXkXxXzXMXLX .IXUXHXzXxXzXJXUXGXi.!.!.!.!.r.3Xl F @X-XyXpX+XH ,XyX:Xf U $XOX",
"uXH 8X@XpXjX_ K.'.`././.).H.U.!.!.U.h.R.!.!.m.UXUXUXNXxXxXsXxXBXGXGXUXbXvXD xXV UXUX' q.D.!.!.c.` l F @X-XiXpXOXK 7XpX6Xz U oXOX",
"yXXX%X@XrXgX<.).'.~.7.3.u.~.D.c.!.U.t.x.!.!.b.UXUXUXmXvXu   0XwXJXBXUXcXxX  & xXNXm.e.D.y N.!.v._ l F @X-XyXpXOXK >XuX<Xz %X$X+X",
"].XX%X*X:XgXn.`.'.i.3.3.3.D.).J.U.!.G.G.!.!.b.PXUXUXBXxXB   u 0XJXBXUXMXvX. . vXq F.!.!.N.e.!.P._ s N OX-XeXpX{.K oXyX:Xz %XoX.X",
";X*X8X,XrX2.~.'.'.i.3.3.3.r.).~.G.!.!.!.!.Q.F.VXKXIXIX^ sX$ B 0XJXNXUXGXxXsXu 9Xi.!.!.W.w d.V.L.1.d F OX-XrXaX}.K *X;X}.f %XK @X",
"uX@X*X;X7Xr.`.'.'.J.3.3.3.r.).~.c.!.!.!.T.L.L.V.L.CXUXGX0XxXxXkXJX' HXUXMX0X! D.!.!.W.9.9.E.W.V.y.R K OX:XiXpX XG $X#X}.c 8XG oX",
"uXv h K oXr.).'.'.`.u.4.4.S.`./.g.!.!.!.V.V.!.W.!.A.IXUXHX} cXLXm.I.;.VXIX .D.!.!.R.-.y Q.L.T.V.L.<.G @X:XpXpX XG @XyXOXb Q F oX",
"uXN I $X>X' S.`.'.'.(.H.H.(.'.`.H.k.!.V.E.Q.W.d.I.B.GXUXUXUXLXmXN.!.!.q.M.G.!.!.y.y q.L.F.-.I.T.L.8.T OX:XyXpX{.H @X<X;XN Q F XX",
"uXN P K @X7X' r.).'.'.`.`.'.'.'.`.H.c.f.!.!.i.w Y.E.n.'  .| b.I.!.!.Y.F.Q.Q.y.5 e.I.!.Y.5 q.E.V.T.t.R OX-XtXaX{.G *X<X:XH Q I I ",
"iXN U XX#XaXyXq D.`.'.'.'.'.'.'.'.).D.f.L.T.T.y.@ w.F.W.!.!.!.!.!.!.!.Q.N.0.y.Q.!.Y.y., - y.W.Q.!.7.R OX=XrXpX].J oX#X-XN G m j ",
"hX X$X*X>XfXfXn u.).'.`.K./.`.'.'.`.J.E.L.L.T.R., - 1 8 9.D.Q.!.!.!.!.!.W.!.!.E.q.5 = ; ; i.!.!.!.7.V a R 1X>Xa _ b.' N XXP K +X",
"hX@XXX*X*XgXpXx t ~._.~.3.u.).'.'.'.J.R.!.!.!.!.F.= X.X.; = + 5 y n.n.n.e.-.q * ( - X.X.- D.!.!.!.8.m.IXUXmXw I.I.F.R.a H Q oXoX",
"jXOXXX*X<XfXrXl Z 0.b.' 5 5./.'.'.'.~.c.!.!.!.!.!.-.; X.X.X.X.; O BXBXnX+ = mXUXGX, X.X.= G.!.!.!.P.AXUXUXUX_ q a 4 I.q H E / } ",
"}.].XX;XyXk & & & O mXGXLX .' (.).~.).r.R.!.!.!.!.F.1 X.X.X.X.X.2 LXUXJX2 ; nXUXJX2 X.X.= W.!.!.!.Q.^.UXUXUXkXd n V F.t m R R W ",
"yX=XI *Xm 9.G.D.D.y.9.q UXUXGXm.0.3.i.~.l.!.!.!.!.!.y ; X.X.; ; = 2 ) ) + ; = 2 2 = X.X.: !.!.!.!.!.D.PXJXBXa c m S D.t n Y N OX",
"lXrX%X%X* I.q a * , w w UXUXUXIX' 3.4.J.K.Y.!.!.!.!.Y., ; ; X X = ..- X + ........X.X...w !.!.!.!.!.g.( V M #Xz & r F.t f M +X=X",
"jXrXqXP t F.k x a ( GXNXUXUXIXJXt 3.3.r.~.Y.!.R.U.!.!.D.= X     X ..=     + X.X.X.X.X.- e.!.!.R.U.Q.u.J b ].{.u q.!.!.Y.q m +X=X",
"hX:XqXS n.n.N l k u | nXnX .m.b.5.3.3.7.K.P.!.z.t.U.!.!.-.      X ; =     X ; X.X.X.X.= Y.!.!.h.t.x.b.5XuXyXyXp w G.!.!.i.i +X=X",
"pX+XqXB F.9.5Xs G #XfXfX0 H./.~.7.3.3.r.~.x.!.z.t.v.!.!.W.#               X ; X.X.X...8 !.!.Y.t.t.x.b.5XuXyXpXV y.I.I.W.i.& +X-X",
"aX XqXV F.q.` C V 5XjXhXV y.).`.i.3.4.H.).D.R.R.x.R.U.U.!.Y.#     .     X + - ; X.X.- q.!.!.!.l.l.R.i.3XyXyXyXa F.i.D.N.5 p +X;X",
"aXH 8X4 I.W.I.I.y W jXaXb r ~.`.(.D.D.).`.(.l.!.!.U.h.h.Y.!.F.# ) ,.,.2 ,.C.,.2 - ; , I.!.!.!.!.!.!.c.[ rXaXyXj C * 4 a p F $X>X",
"aXXXS q.!.!.!.I.w V hXpXx T y.'.`.`.`.'.'.'.D.R.!.U.t.t.x.!.!.Y.w ,.Z.Z.C.CXCXZ.3 @ F.!.!.!.!.!.Y.R.P.' yXhX:Xv $XuXjX[.K K $X*X",
"aX$Xu y.G.Y.I.F.q I uX:Xz E 0.`.`.`.`.`.'.'.D.R.!.Y.h.t.G.!.!.!.E.e.;.e ) ) e e -.F.T.Q.!.!.!.R.h.x.c.` yXhX:Xv $XyXaXx I I %X$X",
"yX Xh # 5 F.y i.a b [.].l Q 5.(.`.(.i.(.'.'.l.R.!.!.U.x.!.!.!.!.Q.A.A.Q.Y.I.W.!.E.Z.A.!.!.!.!.!.P.!.U._ yXhX:Xv $XyXyXl U U U &X",
"}.H G $X1Xp u u I >X6XuXz P t i.`.K.3.K.'.'.J.P.!.!.U.P.U.R.Q.R.v.c.B.C.Z.A.A.Z.A.L.T.!.!.Q.Y.T.!.!.!.<.yXhX-Xv $XyXeXz Q Q P XX",
"uX*XP @X=X-X=X^ $X=XyXuXf U I 9.~.(.7.K.'.`.D.8.g.i.AX^.u.7.4.r.^.AXAXn.5.6.6.6.=.q.r.8.8.w.0 7.g.c.k.r yXhX-Xv oX6X=Xz P D U H ",
"fX*X9X@XeXtX[.%X@XyXpX:Xf U $X/ y.`.(.).).D.M.MXKXUXUXUXUXKXNX(  .GXLXmX .1 :.>.3 | GXBX| | GXPX^.y.M.& yXaX-Xv %X<X:Xz L H m N ",
"fX XQ @XeXeX].$XXX>XyX:Xf I %X5X<.(.`.`.~.ZXFXbXIXUXUXUXUXUXUXIXVXnX| VXUXNX3 1 ,.PXVXVXJXUXUXUXUXUXLX& ;XY C k %X<XyXz c v d d ",
"fXN Q @XeXtXx I K *X6XuXf U %X<Xt H.`.J.M.FXFXDXNXVXVXVXVXVXVXVXVXVXGXVXVXmXo.>.) GXGXGXGXGXGXGXGXGXGXO -.Y.Y.( %X<XrXl F I $X@X",
"uXN Q XXrXrXx K XX*X<X7Xd U %X:Xt u.n.ZXFXFXDX| 8 =.%.$.$.$.$.&.=.$.9 9 8 = :.>.1 > 8 8 =.&.> 6 8 8 -.i.b.y I._ U ,XyXz I U XXN ",
"6XM U XXyXeXx G XX>X<X;Xd I $X:X[ 3.M.FXFXDXq @.6 a.@ X X X X : 6.@ . . . o.>.>.o.X . . p.9 %.$.5 N.y + k u m.C P >XuXc I %X$X.X",
"<XM 8XoXpX:Xl G oX>XyX-Xf I $X:XyXC cXFXSXw 7 6 > a.&.%.%.&.&.*.a.=.*.=.&., :.>.1 9 &.&.$.9 =., e.5 9 , p % SXR S H  Xf U 8XXX+X",
":XN 8X;XfX-Xl L XX#XyX6Xf I XX:XyXg kXcXw > X : < p.s.a.a.a.a.a.s.a.a.s.a.&.1 1 $.a.s.=.8 p.a.8 5 =.9 9 % % CX( F }.d u I 8XXXOX",
";XN Q <XjX=Xz I $X#XuX7Xh P @X<XiXM O 7 :   : @.7 &.6.=.=.=.=.=.=.*.&.&.&.%.8 6 $.$.9 6 a.s.s.a.=.9 @ + u % KX{ XXp . . & Q  XOX",
"-XH Q 7XjX[.j Q $X*XuX>Xd P ;XrXpXf @ @.+ < #.7 > 6 7 7 7 7 7 7 7 7 O.O.O.+.+.+.+.+.+.=.s.a.p.%.6 : # p ;Xi LXR oX. | (   P  X-X",
";XK qX7XhX].n ^ 2X,XfX-Xf I #XyXpXz O +.+.#.< < @.#.#.#.#.#.#.#.#.#.#.#.#.#.#.#.#.#.#.p.a.9 : 6 7 O F eX6X] LXV p   O ( * S @XyX",
":XL K wXfX[.H U *X5X5X=Xl P #XuXpXc $ +.+.< 7 #.#.+.+.#.#.#.@.@.#.#.#.#.#.#.#.#.#.#.#.#.#.O.#.7 O G >XrX4XC ( o % .  .mX( E 2XiX",
"6XL %X7XpX:Xb h v v M c z K ;XuXpXb $ < < +.#.#.#.> +.#.#.#.7 O.#.#.#.#.@.@.+.+.+.+.O.O.O.7 > & n P ;XrX.Xo       * mX .V ~ } kX",
"N L &XdXjXeXb U *X*X>X=Xv I :XyXpX].% X @ @ @ @ + > #.#.#.#.: . . . . . o o o $ o $ $ $ $ % p :Xb K ;XrXm       . nXkXu E { [ [ ",
"c F F @X>X}.v K OX-XfX:Xc U *XuXpX].m S .X4X6Xm + @.#.#.#.@.& m U .X+Xc Q %X<XuX+XL P H  XOX:XrXb L :XyXN .   o ( ( J M T ~ } } ",
"#XF m v N {.j $X;XyXhX-Xz Q %XfXaXx F L 6XaXhXjX$ > @.#.#.> k N U .X+Xj ! $X:XuX#XL P c +X=XyXuXM K @X6XyXi o  .nXa #Xn T R ~ { ",
"5XQ %XdXhX;Xg $X;XyXaX=Xc ^ %XfXfX].K S u & iXjX;XO @ : > & yX{.I .X Xn ! %X:XuX;XJ U m +X;XyX7Xm I K 4XpX5X* } V .X5Xz J k S J ",
"#X%X*XhXgX/ p I #XeXyX}.b 8X%XuXfXx K %     5XlXk 9.5 u n ;XpX}.I .XN n ! Q ,XuX.Xn Q F +X4XwX/ k U K =XhXjX.Xk #X6X6Xz L n I ;X",
"oX^ oXwX{ R u G #X:XeX[.N U oX>XuXd $   O O k 6X5 N.a  X=XeXhX XI +Xb n Q Q I H c n ^ L 1X3XY B S U oX;X;X4X5XK #X4X5Xd U F $X:X",
"} { / R / / k F *X:X:X].M I K K u .   o ) ,.{.a G.r S N =XeXaX XL .Xl f F G L oX.Xn ^ E { R Y k f g f z b z J U oX;X4Xz U I $X;X",
"R 2.2.} { J d k *XeXeX].x c j d o * * S R MX& e.-.S H b =XrXpX@XL 4Xz M E E wXwX1Xm / } { k b +XH L oXyXuX;X2XU H +X+Xc Q U *X=X",
"~ ~ } 2.} / k g *XeXeX].N K K 2Xo ( C G V ;.9.n.k $XH {.-XyXyX*X$X7XN k T R } } } [ } R J ;X6X6XoXqX*XuX6X4X1Xv z z z n ^ qX*X-X",
"R Y J W } [ a k *XeXeX].oX%XH ;Xi . & I Y n.F.~ uX$XK {.-XyXyX2X2XfX+Xg T ~ { [ [ R E ^ J +X+X+Xc $X%X<XuXdX2XJ N M d J ! qXqX=X",
"Y F *XyXN R p F *XeXyX].H 8X*X4XuXl m $XN C a hX>XI H {.;XaX6X2X*XgX#Xg R T R ~ Y g F d s l x z d oX$X;XuXfX2Xm M {.d L ^ $X2X6X",
"f U %XuXiX{.p L $X;X:Xb c 8X*X6XuXd m $X XOX6XfX>XI N {.;XuX;X8XK dX#Xg T T Y k N n F S {.+X+X+Xf m $X>XuXfXI U .X4Xd n m f n b ",
"N ^ U 6XuX}.d U F H oXx z 8X&X6X6Xs n $XN }.;XuX7X^ K b {.}.K ^ 2X5X.Xd S T J 4X6XF ^ U #X<X6X5Xn j oX>XuXdXL U oX1Xd L I L J +X",
"H Q G *X6X{.z P G H .X{.z E &X6X:Xd m L M .XdXhX*Xh g z x {.N F h c b d T P 7X5X5Xm ! P H 6XuXuXN d $X5XuXfXL L oX1Xz F ^ L oX4X",
"K U I *X@Xb j Q Q P 7X<Xc U *X6X;Xd K I H #X7X7Xb F m N +XuX;XK U H c p E qXdX5X5Xm ^ P K 7XuXfX Xd oX5XuXfXI L oX1XN d U G L +X"
};
