/* XPM */
static char *d3f55f96f9f94c5eef98b840a09beee0x3AoZb5OCdqiEFXs[] = {
/* columns rows colors chars-per-pixel */
"64 64 245 2 ",
"   c #09285B",
".  c #17375D",
"X  c #213E5B",
"o  c #061E69",
"O  c #051E70",
"+  c #092665",
"@  c #0D2C64",
"#  c #07246D",
"$  c #09256C",
"%  c #062B6C",
"&  c #0B2B6D",
"*  c #122E6E",
"=  c #0B376A",
"-  c #0C336D",
";  c #163767",
":  c #153B6D",
">  c #082574",
",  c #062C73",
"<  c #0B2C74",
"1  c #0A2D7B",
"2  c #063274",
"3  c #0C3374",
"4  c #0E3C73",
"5  c #073678",
"6  c #0D337B",
"7  c #0D3A7B",
"8  c #113473",
"9  c #123C74",
"0  c #11357B",
"q  c #123B7C",
"w  c #1A3D7B",
"e  c #1C415F",
"r  c #284C5E",
"t  c #395B5D",
"y  c #3D615C",
"u  c #0E406C",
"i  c #18446A",
"p  c #0E4476",
"a  c #134375",
"s  c #1A4475",
"d  c #144A75",
"f  c #1B4D75",
"g  c #14447B",
"h  c #1A447C",
"j  c #154B7B",
"k  c #1A4D7C",
"l  c #155374",
"z  c #1A5376",
"x  c #1B5B76",
"c  c #16537B",
"v  c #1B547C",
"b  c #165A79",
"n  c #1B5B7C",
"m  c #274966",
"M  c #2C5367",
"N  c #355969",
"B  c #254778",
"V  c #265876",
"C  c #355C76",
"Z  c #1D637C",
"A  c #1E6A7B",
"S  c #3B6168",
"D  c #236877",
"F  c #21637D",
"G  c #396475",
"H  c #43645B",
"J  c #48696A",
"K  c #51716F",
"L  c #476974",
"P  c #4B7377",
"I  c #577877",
"U  c #844F67",
"Y  c #845165",
"T  c #83536B",
"R  c #86576D",
"E  c #875975",
"W  c #89607C",
"Q  c #69867B",
"!  c #0B2F86",
"~  c #0D3383",
"^  c #0E3A83",
"/  c #0E358A",
"(  c #133683",
")  c #123B83",
"_  c #123C8B",
"`  c #133D92",
"'  c #0F408A",
"]  c #154483",
"[  c #194585",
"{  c #154C84",
"}  c #1A4C84",
"|  c #15448C",
" . c #1A448B",
".. c #164A8B",
"X. c #1A4C8C",
"o. c #165782",
"O. c #1B5483",
"+. c #1C5C83",
"@. c #1C538B",
"#. c #1C5A8B",
"$. c #164593",
"%. c #194693",
"&. c #174994",
"*. c #1B4B94",
"=. c #164699",
"-. c #194799",
";. c #174A9A",
":. c #1B4C9B",
">. c #1D5293",
",. c #1F5997",
"<. c #1E529B",
"1. c #234B87",
"2. c #245988",
"3. c #214E95",
"4. c #204D9B",
"5. c #225494",
"6. c #22549C",
"7. c #245B9C",
"8. c #285B99",
"9. c #385A97",
"0. c #1D6382",
"q. c #1E6586",
"w. c #216384",
"e. c #226883",
"r. c #2F7089",
"t. c #276398",
"y. c #366898",
"u. c #164AA2",
"i. c #1C4EA2",
"p. c #1E52A3",
"a. c #1E51A8",
"s. c #2254A3",
"d. c #255AA4",
"f. c #295CA3",
"g. c #2356AA",
"h. c #2857A9",
"j. c #255BAB",
"k. c #295EAC",
"l. c #2156B2",
"z. c #265CB3",
"x. c #295EB1",
"c. c #275EB9",
"v. c #2661A5",
"b. c #2C62A5",
"n. c #2661AB",
"m. c #2B62AC",
"M. c #2E69AD",
"N. c #3768A8",
"B. c #3E72AE",
"V. c #2B63B3",
"C. c #2D68B7",
"Z. c #2B64B9",
"A. c #2E6ABB",
"S. c #326AB4",
"D. c #386BB4",
"F. c #336CBC",
"G. c #3C73B9",
"H. c #446A9C",
"J. c #45799C",
"K. c #507094",
"L. c #506FA6",
"P. c #4977A9",
"I. c #577AA9",
"U. c #4779B7",
"Y. c #6377AA",
"T. c #306EC1",
"R. c #316DC2",
"E. c #457CC3",
"W. c #8E6585",
"Q. c #926A8B",
"!. c #926B91",
"~. c #9A7598",
"^. c #A27C9E",
"/. c #A27DA5",
"(. c #5B8391",
"). c #62919C",
"_. c #5986A8",
"`. c #4D84B4",
"'. c #5D87B9",
"]. c #6887AA",
"[. c #6A94AD",
"{. c #6589B7",
"}. c #7391B0",
"|. c #7998B8",
" X c #6FA2B8",
".X c #5688C4",
"XX c #6A95C3",
"oX c #7999C4",
"OX c #78A3C9",
"+X c #8798BA",
"@X c #9B94BC",
"#X c #A684AA",
"$X c #A885B0",
"%X c #AB8AB2",
"&X c #A68EBB",
"*X c #AB8DBC",
"=X c #A694BD",
"-X c #AC95BA",
";X c #AA93BD",
":X c #B291B5",
">X c #B293BC",
",X c #94A6BF",
"<X c #A5ACBF",
"1X c #879DC4",
"2X c #989DC6",
"3X c #A78CC0",
"4X c #AC8DC2",
"5X c #B18EC4",
"6X c #B18ECA",
"7X c #AD94C2",
"8X c #A79AC5",
"9X c #AD9BC4",
"0X c #AE9CCA",
"qX c #B294C4",
"wX c #B39AC5",
"eX c #B296C9",
"rX c #B49ACA",
"tX c #B99FCA",
"yX c #88A7C9",
"uX c #8FAECE",
"iX c #97A7C8",
"pX c #9EB3D2",
"aX c #ABA3C5",
"sX c #A5A7C8",
"dX c #A4A4CA",
"fX c #ADA4CB",
"gX c #ACABCB",
"hX c #B2A2C6",
"jX c #B3A4CB",
"kX c #B3ABCC",
"lX c #BAA9CC",
"zX c #A7B3CC",
"xX c #B8B4CE",
"cX c #AAAED1",
"vX c #B9A7D1",
"bX c #B2ADD2",
"nX c #A7B6D4",
"mX c #B4B4D3",
"MX c #B3BAD6",
"NX c #B9B7D8",
"BX c #B3BBDA",
"VX c #C0ACCF",
"CX c #C6B6D7",
"ZX c #C9B6DB",
"AX c #B2C2D8",
/* pixels */
"5.#.j }  .d.<.b 5 ( $.:.7 g ^ ' | &.*.] 9 , | 6.m.#.n 3 6 q -./ 5 f a j j ]  .X.5.7 = v | ^ &.<.6., v z ] | s.d.3 i t H H H t M ",
"C V c @.:.k.<.d 4  .;.<.6 d g X.:.:.&.7 d 3 X.d.V.#.b 2 6 ) ;./ 5 v g j v | | X.6.] % v { ^ ;.s.s.2 l z ] | s.k.3 ; M H H y S N ",
"M u o.<.<.k.:.p a  .:.s.( d g ..;.:.| 5 b 7 *.s.V.o.b , < ) ;./ - g ] j b ] X.:.7.| @ b { | :.s.s.2 x n q _ :.j.^ ; t t t J . f ",
") v +.<.p.s.&.a g  .p.s.( d ] >.:.:.| 2 b g 6.j.m.{ j - & 1 _ 1 = z O.] b k X.:.7. .= v } $.p.j.<.2 b Z O.<.s.k.] r y N r i z j ",
"d.O.Z p.p.p.*.4 g X.j.j.( d { 7.i.i.$.2 b g d.j.j.] d - 6 ` _ ~ - n >.| b k  .:.7.*.= b } $.s.j.:.5 7 5 2 6 6 | q r S M : Z F +.",
"d.O.Z >.v.g.*.= k *.k.k.( d j 7.i.p.$.2 c g s.k.p.} g ] ;.k.k.$.- } 7.| n k [ :.d.*.= n } $.p.k.:.1 j O. .-.4.*.3 m m @ < v n 7 ",
"d.k Z @.v.s.*.- v *.m.k.1 d g 5.:.p.$.2 c ] s.x.:.: i [ $.p.p._ : G K.C x k [ :.6.&.u n { $.p.m.<., v 0._ ` p.m.& ; 9 ~ < d n X.",
"s.g A X.v.g.%.& v  .V.m.< a j *.:.s.| 2 c ] p.V.` B ).[.XXoXXX_.(.I I C x f [ <.6. .d b ] $.s.V.<., f { / ! _ f.% v >.-.q A n X.",
"8.] Z { v.j.$.# v [ V.n.< a v X.:.g._ 4 v 8.'.yXpXmXkXjXhXhXhXjXmXzX,X].y.O.[ <.f.0 z n ] $.i.V.p., j } =.-.h.6.- 0.<.*.3 Z O.| ",
"L h 0.{ v.k.$.# O.| S.m.6 a l @.s.s._ v  XpXaXjXfXbXbX0XeXeXeXeXeXeXwXjXsXyXy.:.d.3 n v ( $.i.x.<., a ..=.i.x.*.9 0.<.*.< n { | ",
"L N 0.{ j.n.*., g | 6.d.( a Z #.d.n.I.pXjX0XbXmXBXBXMXbXwXwXwXwXwXeXwXwXeXwXMXOXN.0 n l 6 %.:.k.s.# a ..=.i.x.%.a #.s.:.< n { | ",
"1.V 0.X.j.V.;., 4 g X.*.q a n #.U.uXfX9X0XbXBXBXcXfXjXwXwXwXrXrXwXwXwXeXeXwXrXkXpXP.+.4 7 | :.s.p.# a ..;.g.k.| g ,.s.:.& n @.| ",
"d.g 0.X.j.C.;.% c q.,.V.| a n P.nX9X0XwXjXBXBXbX0XrXrXrXrXrXrXrXrX*X~.W.~.%XeXrXwXxX Xv } } :.s.:.# a ..;.g.j.| j 7.g.4.< n } | ",
"s.{ +...p.C.=.% v O.:.C._ k _.zXwX0X0XjXbXBXBXfXrXrXrXrXrXrXrXrX$XE Y T T R /.rXrXwXgX}.8 > ~ ( _ # g ..;.g.j.| j >.d.:., +.O.X.",
"^ { o.@.:.C.$.% n c *.V._ _.gX9X0XbXMXBXBXBXmXrXrXrXrXrXrXrXrXrX!.U Y T T Y E wXwXwXwXaXuX3.| $._ o g ..-.i.j.( j } s.:.< +.} [ ",
"*.#.0.,.p.V.| 2 n n <.m.P.cXwX0XmXBXBXBXmXkXwXrXrXrXrXrXwXqXwXrX/.T U U Y Y E qXrXrXwXwXhXoX6.f.f.& g | =.i.x.) j @.*._ & +.j { ",
"f.} @.&.s.d.&.4 Z n <.`.mXwXwXrXBXBXgX0XwXwXrXrXrXrXrX*XQ.W./.eXqX~.R T T R ~.wXrXrXrXrXwXgX'.s.*.w j ..;.g.k.] d O.X._ 3 0.d } ",
"f.7 = j ..;.;.p Z +.7.uX9X9XwXfXBXBXjX0XwXrXrXrXrXrXwXW Y Y Q.wXwXwX>X#X#X:XwXwXrXrXrXrX0XwXAXG.%.q j ..:.g.j.] d { s.| 6 Z a } ",
"d.q v O.>.n.&.4 #.@.P.gX0XwXkXMXBXBXjXwXrXwXwXwXrXrXwXQ.R W #XwXwXwXwXwXrXwXwXwXqX>XqXwXwXwXhXuX%.< { ..:.g.j.( g ..<.*.q Z a { ",
"d.q b j | j.*.- @.:.yXhXrXjXBXBXMXfX0XwX>X~.~.#XwXrXrXqX:X:XwXwXwXrXrXrXwXwX:X~.E E E ^.wXwX9XsX3.# j ..;.p.z.^ d @.<.:.g Z v v ",
"k.q n { X.m.s.- } 6.nXwXwXkXBXmXaXrXwX#XE T Y T #XwXwXrXwXwXwXwXwXrXrXrXwX>XW.Y Y Y Y R >XwX0XaX9.$ k | =.p.k.^ k @.<.;.q d 4 - ",
"V.] o.@.>.m.m.1 c t.mXwXwXkXMXmXwXwX#XR Y Y U Y ~.wXwXrXrXwXwXwXwXwXrXrXwX/.T Y Y Y Y Y $XrXwXfX9.- k | :.g.k.^ j @.<.:.] b j  .",
"V...{ @.@.S.j.1 g t.mXwXwXmXMXkX9XwX~.Y Y Y Y T #XwXwXwXwXqX$XQ.Q.%XwXrXqX~.U Y Y Y Y R *XeXeXaX9.d c ..:.j.k.) g @.d.p.j Z { } ",
"Z.| { @.,.m.p.> i 2.mXwXkXMXmX9XwXwX#XR Y Y E ~.qXqXwXwXqX~.T Y Y Q.wXqXqX#XR Y Y Y T ~.qXqXqXsX1.f j ..:.g.k.( 9 @.j.p.g V C P ",
"_ ~ { *.s.F.u.> i G zX-XmXmX9XwXwXwXqX%X/.#X:XqXqXqXqX9X-XE Y Y Y W.qXqXqXqX$XQ.W.~.%XqXwXqX7XuX0 v j $.;.a.V.( : @.k.s.w N N M ",
"s.%.v @.<.C.u.> i r }.hXjX-X~.$X9XqXwX9XwX7X7X7X7XqXqXqX>X~.E R E #XqXqXqXqXqXqXqXqXqXqXqXqXkX.X0 x j | $.p.m.^ : @.f.:.9 m w | ",
"T.s.+.+.X.V.i.1 m t I <XqX~.T #XwXwXqXqXwXqXqX7X7XqXqXqXqXqX%X%X*XqXqXqXqXqXqXqXqXqXqXqXqXhXyXd.q d 9 q $.-.<.1 9 p &.| < 3  .$.",
"A.p.w.n >.C.a.1 m M i {.aX-X%X>XqXqXqXqXqXqXqXqXqXqXqXqXqXqXqXqXqXqXqXqXqXqXqXqXqXqXqXqXwXiXk 7 & k q ( 6 ^ ( < g ] X.) 4 9  .$.",
"x.:.w.+.<.C.p.> ; 9 :.k.iXlXwXwXqXqXqXqXqXqXqXqXqXqXqX7X7X7X7X7X7XqXqXqXqXqX7XjXlXlXlXlXlXzXy.$.3 2.] <.f.s.s.) v q.<.<.3 9  .$.",
"k.| e.O.*.S.n.O d X.V.F.AXCXCXZXZXZXZXtXqXqXqXqXqXvXVXxXZXZXZXZXZXvXqXqXqXqXqX9X9X7X;X7X;X-XuXp.6 O.} <.d.s.j.X.w.t.g.p.5 4  .%.",
"k.[ q.O.7.C.j.O j 5.S..XkX4X4X7X7X7X7X7X5X5XqXqX5XqXwXwX7X7X;X7X4X7X5X5X5X5XqXqXqXqX4X4X7XwXyX%.3 ] &.s.s.s.s.] O.7.V.i.9 4  .&.",
"k.g 0.O.6.V.:.3 n N.C.C.uXwX>XqXqXqX5X5X5X5X5X5X5X6XqXqX5X5X5X5X5X5X4X4X4X5X5XqXqX5X4X;X9XpXG.j. .{  .:.p.x.p.q @.d.V.$.g j @.>.",
"V.] +.+.f.V.;.w.yXMXOXn.( [.iXkXVXVXfXaX9X9X7XqXeXqXwX9X9XfXsXsXfXaX9XjXjXbXnXnXnXCXCXMX[.f.d.`.zXuX2. .s.V.:.7 @.d.Z./ j j O.#.",
"k.@.e.0.b.g.$. XaX-XsXB.< n e.[.jXmXH.J.I.{.oXiXZXlXzXI.U.U.B.1.y.P.{.NXjXoXm.S.B.sXwX].| :.g.yX;X;XiX'.U.S.:.3 @.s.z.! v v +.O.",
"s.] a 3 ) | {.aX*XCX-XI.% Z +.H.8XfX1.b X.p.Z.G.gX7X_.:.s.g.s.< v X.f.sX*X{.g.V.d.iX7X].%.s.D.gX7X*X4X7XaXyX:.4 O.s.g.< n n +.O.",
"_ g d @.P.iX9X*XwXCX*XiX8 b { P.9XgXk v *.j.Z.E.8X9XH.;.i.g.s.3 v ..s.iX&XoXs.V.p.1X&X+X;.g..X=XvXlX;X4X7X1X;.4 O.s.i.< Z Z b } ",
"d.#.b ..N.zX7XjX1XyX7X9X].n { XX;XnXg v 6.j.z.E.8X9XH.;.i.z.s.6 v ..s.}.&XyX6.f.*.I.=XfX5.i.OX&XkX_.yXMXiXU.%.4 O.6.$., l d n g ",
"m.@.q...i.G.{._.*.b.cX3XgX[._.sX=XoXa v 6.l.c.F.cX7X_.&.:.j.s.3 v ..j.L.=X@Xb.f.X.1.gX;XyXN.pX*X2XO.} 6.s.x.%.4 +.<.:., f g 4 q ",
"m.] Z ..i.u.~ O.{ <.{.9X3X9X8X3XgXb.a j 6.g.c.C.1X*X,X*.:.g.s.3 v *.j.H.=X@XN.f.| < |.;X7X8X7X7XI.j { $.p.k.;.a +.<.s.< 2 4 + + ",
"m.q Z { i.a.1 v c @.f.uX=X3X&XaXXX$.a } <.g.z.x.L.;XfXb.i.g.i.& v *.d.L.;X@XN.7.( & y.iX*X3X3XsX1.k { $.:.j.<.4 +.<.p.# p c @.X.",
"d.q Z { p.p.1 j { @.<.b.L.|.|.'.j.( a @.s.l.c.V.H.9X0XB.i.p.p.< v 8.d.}.*X2X8.7.( & O.J.1XaXsX'.8 v { $.:.s.d.p Z 7.s., c b { 7 ",
"6.0 n { s.i.1 d { >.<.*.& n +.:.p.( a } g.l.c.V.{.;XfXb.p.i.s.< v 8.b.sX*X|.:.v.( & O.#.7.N.b.s.w Z O.&.;.i.v.p b >.d.3 v +.O.[ ",
"<.0 0.} j.:.< d } >.s.%.& v O.:.s.^ a { g.l.c.C.uX*XiX6.p.;.s.< v 7.U.9X7XL.%.6.6 & O.@.<.i.i.s.X.v g ) | %.>.p d g [ & n +.{  .",
":.q 0.&.m.=.< f { ..s.6.% v { :.g.6 a { s.l.c.F.cX;X}.>.s.i.i.< v t.U.8XrXH.( | 1 3 n +.6.i.:.s.| 9 & # # < q 4 g | ( < n 0.{ | ",
"*.q Z <.C.$., v @.X.d.7.= b ..:.g.0 d g <.l.c.F.gX7X_.} s.p.:.< v 2.N.aX9XP.s.j.) 9 n x <.p.p.:.^ v k } X.[ q a } d.n.^ v Z ] | ",
"&.g Z 7.C.` - Z O.#.f.>.@ b *.p.g.3 d j <.l.Z.F.pX7X].&.j.p.i.1 n #.v.iX;X{.d.j.:.g b z >.s.s.:.^ k } $.:.7.6 9 X.d.v.) z x ] *.",
"*.j e.7.V.! 8 F 2.t.m.;.% v X.s.j.1 d j s.l.z.C.oX=XiX:.g.p.<.< v X.v.oX&XyXm.n.*.] n l :.s.s.s.) k >.i.6.k.6 a @.6.d.0 v b X.s.",
":.k c t.m./ a n @.5.5.$., b X.d.j.6 a j :.l.z.C.m.sXaXy.:.:.:.< v  .f.{.7X2XD.M.| g b j :.g.s.j.) v >.p.s.k.1 a @.6.6.6 v D 2.k.",
"6.k +.7.g.:.6 = 4 4 0 < , j *.d.j.6 a g <.l.Z.A.;.1X=X_.| ;.:.q b [ 6.Y.4X2XD.d.( a n v &.p.i.s.q c *.p.s.k.1 a #.6.6.< V S P K.",
"q k O.v.A.i.6 n #.#.>.$.7 v :.s.j.6 a j <.c.Z.A.:.+X=X{.| :.:.q n [ | }.*X2Xm.k.) k n z ]  .:.:.0 j *.p.s.k.< j O.6.6.< V L J J ",
"8 a p ..>._ q c | &.m.;.6 n #.f.k.~ a { 6.z.Z.T.:.+X9XH. .:.:.q n [ 5.sX*XoX<.f. .f x g ] | :.p.0 k :.s.s.m.6 d @.6.6.8 M S K K ",
"X.a 9 7 q ( - O.&.s.V.=.< n +.m.k.1 a k 6.k.V.T.i.iXgX2.%.i.s.q n [ P.8X7X_.:.d.X.k x 3 | %.s.d.0 j X.6.s.V.) g *.6.5.8 M M S L ",
"2.Z +.v.M.:.@ O.*.s.x.$.3 F +.m.m.1 j n X.d.V.T.D.aXiXq %.i.j.) v [ '.7X0XJ.:.d.*.a x 9  .*.s.7.w z g 4.j.C. .j @.6.5.* s ; i B ",
"X.+.@.V.N.G . v X.i.g.` 6 0.+.f.m.1 j v ] f.F.T..X=X2X7 $.i.k.) v [ y.8X8X_.,.f.[ 9 x a  .4.y.C ; n g %.V.C.:.j @.6.6.< f 9 v *.",
"} F } y.L M   d X.:.i._ q n } >.d.1 j +.@.>.g.x.XX&XiX] $.i.V.[ v  .6 +X&X|.v h 3 8 F f 1.r.m e i x } *.*.3.5.j X.:.5.$ v a O.:.",
"P P G N G G ; a @.:.:./ 0 v j j q # g j g | $.%.'.*XsX[ $.i.x.] k  .# Y.&X+Xk } [ 8 F C L N m : & @ & < 0 < h n } *.4.< n v O.*.",
"M Q Q K L B + : @.i.i.~ 1 3 - - , # q v O.6.F.T.U.9X0X8.$.p.j.X.k 3.< L.3X,Xy.y.1.: G K L : 0  .h f { d.d.3.2.x h  . .3 Z v #.$.",
"S S K (.I C ; * @.i.i.~ q j j 8.f.1 9 v 7 3.V.T.k.1XgX9.%.s.g.@.O.7.0 K.-X+XK I K J P N s 3.6.6.} e.#.d.6.3.1.4 < < < 8 D w.#.;.",
"N m h B K J X ; @.i.i.~ } +.g :.d.1 9 O.q  .s.C.d.y.I.[ %.s.s.2.2.b. .B [.P L J K N V F h  . . .6 O.#.<.d.v.2.h w 0 # s e.e.w.$.",
"m a #.s.w N . a #.i.p./ g 0.@.4.d.# 9 O.w %.s.V.>.v g ) *.x.6.2.#.M.X.@ N M N S M * u   o # 1 < # { O.:.d.m.2.4 0 ) # k e.O.2.6.",
"- V +.f.h.) . f @.*.:.6 3 0.@.6.d.# 9 O.] | 6.n.>.v q ( *.d.*.0.j m.X.@ M M m ; q 8 9 u ) %. .[ & 9 O.>.d.m.v v [ 3.# 8 4 & 8 0 ",
"9 F n 6.j._ @ n a g } 1 & Z O.6.6.o 9 O.w ) :.f.8.F j 6 ( [ ] F 2.5.[ @ i M h 3.7.a Z n *.<.6.5.8 - } 5.d.b.f v } 1.$ k z f h 1.",
"a Z d @.6.( < l d g [ ( < V O.6.:.# 9 f 8 [ b.M.@.= @ < 1 ( q a = 8 0 @ M z 7.5.5.: A b g 6.s.f.q & @.5.f.b.f f } 1.3 s F f } 5.",
"j x v @.X.0 - Z Z c 7.<.6 n #.7.:.$ g v g X.7.7.6 a 9 q  .d.&.j n g 3 @ x w.v.5.5.: D x j 6.d.m.] + } 5.f.m.v f } 1.q @ v s k  ."
};
